<svg width="9" height="5" viewBox="0 0 9 5" fill="none" xmlns="http://www.w3.org/2000/svg">
<g clip-path="url(#clip0)">
<path d="M4.58598 5.00671C4.75839 4.98891 4.93081 4.91774 5.06874 4.79318L8.68943 1.59034C9.06874 1.28784 9.12046 0.71845 8.82736 0.344785C8.53426 -0.0466744 7.98253 -0.100053 7.62046 0.202438C7.60322 0.220232 7.58598 0.220234 7.58598 0.238027L4.51701 2.94266L1.44805 0.238027C1.10322 -0.100051 0.551496 -0.0644658 0.22391 0.291406C-0.103677 0.647278 -0.0691939 1.21667 0.275634 1.55475C0.292875 1.57254 0.310116 1.57254 0.310116 1.59034L3.93081 4.79318C4.12046 4.93553 4.3446 5.0245 4.58598 5.00671Z" fill="#333333"/>
</g>
<defs>
<clipPath id="clip0">
<rect width="9" height="5" fill="white"/>
</clipPath>
</defs>
</svg>
