<svg width="5" height="9" viewBox="0 0 5 9" fill="none" xmlns="http://www.w3.org/2000/svg">
<g clip-path="url(#clip0)">
<path d="M5.00671 4.41402C4.98891 4.24161 4.91774 4.06919 4.79318 3.93126L1.59034 0.310573C1.28784 -0.068738 0.71845 -0.120461 0.344784 0.172642C-0.0466748 0.465745 -0.100053 1.01747 0.202438 1.37954C0.220231 1.39678 0.220233 1.41402 0.238027 1.41402L2.94266 4.48299L0.238027 7.55195C-0.100051 7.89678 -0.0644658 8.4485 0.291406 8.77609C0.647278 9.10368 1.21667 9.06919 1.55475 8.72437C1.57254 8.70712 1.57254 8.68988 1.59034 8.68988L4.79318 5.06919C4.93553 4.87954 5.0245 4.6554 5.00671 4.41402Z" fill="#333333"/>
</g>
<defs>
<clipPath id="clip0">
<rect width="9" height="5" fill="white" transform="translate(0 9) rotate(-90)"/>
</clipPath>
</defs>
</svg>
