<svg width="20" height="20" viewBox="0 0 20 20" fill="none" xmlns="http://www.w3.org/2000/svg">
<path d="M8.53106 18.0975C4.09744 18.0975 0.486816 14.4427 0.486816 9.94708C0.486816 5.51345 4.09744 1.90283 8.53106 1.90283C12.9647 1.90283 16.5753 5.51345 16.5753 9.94708V10.1418L18.478 8.23912C18.593 8.12407 18.7435 8.07097 18.9027 8.07097C19.062 8.07097 19.2213 8.13292 19.3275 8.24796C19.5665 8.4869 19.5665 8.86743 19.3275 9.10637L16.3983 12.0356C16.3718 12.0621 16.3364 12.0887 16.3098 12.1152C16.301 12.1241 16.2921 12.1241 16.2744 12.1329L16.2567 12.1418C16.2213 12.1683 16.1771 12.186 16.1328 12.1949H16.124C16.1151 12.1949 16.0974 12.2037 16.0886 12.2037C16.0532 12.2126 16.0089 12.2126 15.9735 12.2126C15.9381 12.2126 15.8939 12.2126 15.8585 12.2037C15.8496 12.2037 15.8319 12.1949 15.8231 12.1949L15.8054 12.186C15.7612 12.1772 15.7169 12.1595 15.6815 12.1329L15.6727 12.1241C15.6638 12.1152 15.655 12.1152 15.6373 12.1064C15.6019 12.0798 15.5753 12.0621 15.5488 12.0267L12.6107 9.08867C12.3718 8.84973 12.3718 8.4692 12.6107 8.23027C12.7258 8.11522 12.8762 8.05327 13.0355 8.05327C13.1948 8.05327 13.3452 8.11522 13.4603 8.23027L15.3629 10.1329V9.93823C15.3629 6.16832 12.301 3.10637 8.53106 3.10637C4.76115 3.10637 1.69921 6.16832 1.69921 9.93823C1.69921 13.7612 4.76115 16.8763 8.53106 16.8763H8.54876C10.3452 16.8763 12.0974 16.1506 13.3629 14.8763C13.478 14.7612 13.6284 14.6993 13.7877 14.6993C13.947 14.6993 14.0974 14.7612 14.2125 14.8763C14.4514 15.1152 14.4514 15.4958 14.2125 15.7347C12.7258 17.2303 10.655 18.0887 8.54876 18.0887L8.53106 18.0975Z" fill="#333333"/>
</svg>
