<svg width="9" height="5" viewBox="0 0 9 5" fill="none" xmlns="http://www.w3.org/2000/svg">
<g clip-path="url(#clip0)">
<path d="M4.41402 -0.00670807C4.24161 0.0110856 4.06919 0.0822621 3.93126 0.206817L0.310573 3.40966C-0.0687379 3.71215 -0.120461 4.28155 0.172642 4.65521C0.465745 5.04667 1.01747 5.10005 1.37954 4.79756C1.39678 4.77977 1.41402 4.77977 1.41402 4.76197L4.48299 2.05734L7.55195 4.76197C7.89678 5.10005 8.4485 5.06447 8.77609 4.70859C9.10368 4.35272 9.06919 3.78333 8.72437 3.44525C8.70713 3.42746 8.68988 3.42746 8.68988 3.40966L5.06919 0.206817C4.87954 0.0644685 4.6554 -0.0245017 4.41402 -0.00670807Z" fill="#333333"/>
</g>
<defs>
<clipPath id="clip0">
<rect width="9" height="5" fill="white" transform="translate(9 5) rotate(-180)"/>
</clipPath>
</defs>
</svg>
