<svg width="5" height="9" viewBox="0 0 5 9" fill="none" xmlns="http://www.w3.org/2000/svg">
<g clip-path="url(#clip0)">
<path d="M-0.00670761 4.58598C0.011086 4.75839 0.0822626 4.93081 0.206818 5.06874L3.40966 8.68943C3.71216 9.06874 4.28155 9.12046 4.65522 8.82736C5.04667 8.53426 5.10005 7.98253 4.79756 7.62046C4.77977 7.60322 4.77977 7.58598 4.76197 7.58598L2.05734 4.51701L4.76197 1.44805C5.10005 1.10322 5.06447 0.551496 4.70859 0.22391C4.35272 -0.103677 3.78333 -0.0691939 3.44525 0.275634C3.42746 0.292875 3.42746 0.310116 3.40966 0.310116L0.206818 3.93081C0.0644689 4.12046 -0.0245013 4.3446 -0.00670761 4.58598Z" fill="#333333"/>
</g>
<defs>
<clipPath id="clip0">
<rect width="9" height="5" fill="white" transform="translate(5) rotate(90)"/>
</clipPath>
</defs>
</svg>
