<svg width="20" height="20" viewBox="0 0 20 20" fill="none" xmlns="http://www.w3.org/2000/svg">
<g clip-path="url(#clip0)">
<path d="M19.8141 3.41602C19.6726 3.23903 19.4602 3.14168 19.2389 3.14168H3.20354C2.78761 2.14168 1.83186 1.49567 0.752212 1.48682C0.336283 1.48682 0 1.8231 0 2.23903C0 2.65496 0.336283 2.99124 0.743362 2.99124C1.31858 2.99124 1.81416 3.42487 1.88495 4.00009L3.62832 14.9116C3.69026 15.2744 4 15.5399 4.37168 15.5399H5.07079C4.68141 16.6461 5.22124 17.885 6.31858 18.3364C6.59292 18.4514 6.88495 18.5045 7.17699 18.5045C8.07964 18.5045 8.8938 17.9647 9.23893 17.1328C9.45132 16.6284 9.46902 16.0532 9.28318 15.5399H12.3274C11.938 16.6461 12.4779 17.885 13.5752 18.3364C13.8495 18.4514 14.1416 18.5045 14.4336 18.5045C15.3363 18.5045 16.1504 17.9647 16.4956 17.1328C16.708 16.6284 16.7257 16.0532 16.5398 15.5399H17.2389C17.6549 15.5399 17.9911 15.2036 17.9911 14.7877C17.9911 14.3718 17.6549 14.0355 17.2389 14.0355H5.0177L4.88495 13.2213H17.6018C17.9557 13.2213 18.2655 12.9647 18.3363 12.6107L19.9911 4.02664C20.0265 3.8054 19.9646 3.58416 19.8141 3.41602ZM13.7168 16.2744C13.7168 15.8673 14.0442 15.5399 14.4513 15.5399C14.8584 15.5399 15.1858 15.8673 15.1858 16.2744C15.1858 16.6815 14.8584 17.0089 14.4513 17.0089C14.0442 17.0089 13.7168 16.6815 13.7168 16.2744ZM6.45132 16.2744C6.45132 15.8673 6.77876 15.5399 7.18583 15.5399C7.59291 15.5399 7.92035 15.8673 7.92035 16.2744C7.92035 16.6815 7.59291 17.0089 7.18583 17.0089C6.77876 17.0089 6.45132 16.6815 6.45132 16.2744ZM4.64601 11.7258L3.51327 4.63726H18.3363L16.9734 11.7258H4.64601Z" fill="#333333"/>
</g>
<defs>
<clipPath id="clip0">
<rect width="20" height="20" fill="white"/>
</clipPath>
</defs>
</svg>
