<svg width="20" height="20" viewBox="0 0 20 20" fill="none" xmlns="http://www.w3.org/2000/svg">
<path d="M2.82836 9.2002H0.995605V19.0888H2.82836V9.2002Z" fill="#333333"/>
<path d="M1.91198 10.165C2.41809 10.165 2.82836 9.75108 2.82836 9.24046C2.82836 8.72985 2.41809 8.31592 1.91198 8.31592C1.40588 8.31592 0.995605 8.72985 0.995605 9.24046C0.995605 9.75108 1.40588 10.165 1.91198 10.165Z" fill="#333333"/>
<path d="M8.2229 1.88428H6.39014V19.0888H8.2229V1.88428Z" fill="#333333"/>
<path d="M7.30652 2.84909C7.81262 2.84909 8.2229 2.43515 8.2229 1.92454C8.2229 1.41393 7.81262 1 7.30652 1C6.80041 1 6.39014 1.41393 6.39014 1.92454C6.39014 2.43515 6.80041 2.84909 7.30652 2.84909Z" fill="#333333"/>
<path d="M13.6096 7.271H11.7769V19.0891H13.6096V7.271Z" fill="#333333"/>
<path d="M12.6932 8.2358C13.1993 8.2358 13.6096 7.82187 13.6096 7.31126C13.6096 6.80065 13.1993 6.38672 12.6932 6.38672C12.1871 6.38672 11.7769 6.80065 11.7769 7.31126C11.7769 7.82187 12.1871 8.2358 12.6932 8.2358Z" fill="#333333"/>
<path d="M19.0046 4.53711H17.1719V19.0886H19.0046V4.53711Z" fill="#333333"/>
<path d="M18.0883 5.50192C18.5944 5.50192 19.0046 5.08799 19.0046 4.57738C19.0046 4.06676 18.5944 3.65283 18.0883 3.65283C17.5822 3.65283 17.1719 4.06676 17.1719 4.57738C17.1719 5.08799 17.5822 5.50192 18.0883 5.50192Z" fill="#333333"/>
</svg>
