<svg width="20" height="20" viewBox="0 0 20 20" fill="none" xmlns="http://www.w3.org/2000/svg">
<g clip-path="url(#clip0)">
<path d="M12.5576 8.92926L17.1948 4.2921L15.6992 2.79652L11.0355 7.43369C10.885 7.64608 10.2125 9.14165 9.6638 10.3275C10.885 9.78767 12.4072 9.08856 12.5576 8.92926ZM18.5045 4.72572L13.4426 9.78767C13.0797 10.1505 10.7877 11.1594 9.47796 11.7346C9.11513 11.885 8.8408 12.0089 8.7169 12.0709C8.56646 12.1328 8.38062 12.1594 8.23018 12.0709C7.92929 11.9204 7.77 11.5841 7.92929 11.2744C7.99124 11.1505 8.11513 10.8762 8.26557 10.5133C8.7877 9.32749 9.6992 7.24785 10.124 6.67263C10.1505 6.64608 10.1859 6.58413 10.2125 6.54873L15.2125 1.54873L15.2744 1.48679L16.2479 0.513335C16.5842 0.177052 17.0443 -0.00878906 17.4957 -0.00878906C17.947 -0.00878906 18.4072 0.177052 18.7434 0.513335L19.478 1.24785C19.8142 1.58413 20.0001 2.04431 20.0001 2.49564C20.0001 2.94696 19.8142 3.40714 19.478 3.74342L18.5045 4.72572ZM16.5576 1.94696L18.0532 3.44254L18.6019 2.89387C18.7257 2.80537 18.7877 2.64608 18.7877 2.49564C18.7877 2.34519 18.7257 2.2213 18.6019 2.09741L17.9027 1.39829C17.7788 1.2744 17.655 1.21245 17.5045 1.21245C17.3541 1.21245 17.2036 1.2744 17.1063 1.39829L16.5576 1.94696Z" fill="black"/>
<path d="M17.4071 12.9557C17.4071 12.6194 17.6814 12.345 18.0177 12.345C18.354 12.345 18.6283 12.6194 18.6283 12.9557V17.5574C18.6283 18.23 18.354 18.8406 17.8938 19.2654C17.469 19.7256 16.8584 19.9999 16.1858 19.9999H2.44248C1.76991 19.9999 1.15929 19.7256 0.734513 19.2654C0.274336 18.8406 0 18.23 0 17.5574V3.81406C0 3.14149 0.274336 2.53087 0.734513 2.1061C1.15929 1.64592 1.76991 1.37158 2.44248 1.37158H7.04425C7.38053 1.37158 7.65487 1.64592 7.65487 1.9822C7.65487 2.31848 7.38053 2.59282 7.04425 2.59282H2.44248C2.10619 2.59282 1.80531 2.74326 1.59292 2.95565C1.38053 3.16804 1.23009 3.47778 1.23009 3.80521V17.5574C1.23009 17.8937 1.38053 18.1946 1.59292 18.407C1.80531 18.6194 2.11504 18.7698 2.44248 18.7698H16.1947C16.531 18.7698 16.8319 18.6194 17.0442 18.407C17.2566 18.1946 17.4071 17.8849 17.4071 17.5574V12.9557Z" fill="black"/>
</g>
<defs>
<clipPath id="clip0">
<rect width="20" height="20" fill="white"/>
</clipPath>
</defs>
</svg>
