<svg width="20" height="20" viewBox="0 0 20 20" fill="none" xmlns="http://www.w3.org/2000/svg">
<g clip-path="url(#clip0)">
<path d="M16.8763 14.2478C16.6639 14.2478 16.4604 14.1593 16.3188 13.9735C16.071 13.6549 16.1153 13.2124 16.4339 12.9646C17.1241 12.416 17.7436 11.77 18.2569 11.0708C18.6728 10.5222 18.6728 9.7788 18.2569 9.22128C16.2923 6.57526 13.2834 5.07084 10.0002 5.07084C8.64625 5.07084 7.32766 5.32747 6.09757 5.8319C5.72589 5.99119 5.30996 5.80535 5.16837 5.44252C5.02678 5.07084 5.19492 4.65491 5.55775 4.51331C6.96483 3.93809 8.46926 3.63721 10.0091 3.63721C13.6993 3.63721 17.2215 5.40712 19.4162 8.38057C20.2038 9.44252 20.2038 10.8761 19.4162 11.9381C18.8144 12.7434 18.1241 13.4602 17.3365 14.0885C17.1949 14.2036 17.0356 14.2478 16.8763 14.2478ZM10.0002 16.6726C6.30996 16.6726 2.78784 14.9027 0.593149 11.9292C-0.194461 10.8673 -0.194461 9.43367 0.593149 8.37172C1.07103 7.7257 1.62855 7.12393 2.23032 6.59296C2.5312 6.33632 2.97368 6.36287 3.24802 6.64606C3.50465 6.94694 3.4781 7.38942 3.19492 7.66376C2.66395 8.14163 2.17722 8.65491 1.76129 9.23013C1.34536 9.7788 1.34536 10.5222 1.76129 11.0797C3.71704 13.708 6.71704 15.2301 10.0091 15.2301C11.3631 15.2301 12.6816 14.9735 13.9117 14.4514C14.2834 14.2921 14.6993 14.4779 14.8409 14.8407C15.0002 15.2124 14.8144 15.6284 14.4516 15.77C13.0445 16.3717 11.5489 16.6726 10.0002 16.6726Z" fill="#333333"/>
<path d="M9.90298 13.6285C7.96493 13.6285 6.38086 12.0445 6.38086 10.1064C6.38086 9.70818 6.69944 9.3896 7.09767 9.3896C7.4959 9.3896 7.81449 9.70818 7.81449 10.1064C7.81449 11.2569 8.74369 12.1861 9.89413 12.1861C10.3809 12.1861 10.841 12.0268 11.2127 11.7082C11.5136 11.4515 11.9738 11.5046 12.2216 11.8055C12.4782 12.1064 12.4251 12.5666 12.1242 12.8144C11.5047 13.3631 10.7171 13.6285 9.90298 13.6285ZM12.6994 10.8498C12.3012 10.8498 11.9826 10.5312 11.9826 10.133C11.9826 8.98252 11.0534 8.05332 9.90298 8.05332C9.4428 8.05332 9.00033 8.19491 8.62864 8.48695C8.31891 8.72588 7.86758 8.67279 7.62865 8.36305C7.62865 8.36305 7.62865 8.3542 7.6198 8.3542C7.37201 8.03562 7.43396 7.59314 7.75254 7.34535C8.37201 6.85863 9.11537 6.61084 9.90298 6.61084C11.841 6.61084 13.4251 8.19491 13.4251 10.133C13.4163 10.5135 13.1065 10.8498 12.6994 10.8498Z" fill="#333333"/>
<path d="M16.4073 18.1151C16.2038 18.1151 16.0179 18.0266 15.8763 17.8673L2.54889 3.08856C2.29225 2.78768 2.3011 2.3452 2.60199 2.07086C2.90287 1.81423 3.34535 1.82308 3.61969 2.12396L16.9383 16.9204C17.1949 17.2213 17.1861 17.6638 16.8852 17.9381C16.7347 18.0532 16.5754 18.1151 16.4073 18.1151Z" fill="#333333"/>
</g>
<defs>
<clipPath id="clip0">
<rect width="20" height="20" fill="white"/>
</clipPath>
</defs>
</svg>
