<svg width="20" height="20" viewBox="0 0 20 20" fill="none" xmlns="http://www.w3.org/2000/svg">
<path d="M19.4073 8.37172C17.2126 5.39827 13.6905 3.63721 10.0002 3.63721C8.59315 3.63721 7.21262 3.89384 5.91173 4.37172C5.77014 4.42482 5.55775 4.49561 5.30996 4.60181C5.04448 4.71685 4.37191 5.00889 2.92058 6.01774C2.29226 6.46022 1.87634 6.76995 1.4958 7.30092C1.4958 7.30092 1.4958 7.30092 1.4958 7.30977C1.16837 7.64606 0.867486 8.00889 0.593149 8.38057C-0.194461 9.44252 -0.194461 10.8761 0.593149 11.9381C2.78784 14.9115 6.30996 16.6815 10.0002 16.6815C11.5312 16.6815 13.0091 16.3894 14.3985 15.8142C14.3985 15.8142 14.3985 15.8142 14.4073 15.8142C14.425 15.8054 14.4427 15.8053 14.4604 15.7965C14.5135 15.7788 14.5578 15.7523 14.602 15.7169C15.1861 15.416 16.9206 14.5045 17.5135 13.9469L17.5224 13.9381C18.2303 13.3452 18.8586 12.6815 19.4162 11.9469C20.1949 10.8761 20.1949 9.43367 19.4073 8.37172ZM18.2569 11.0708C17.7436 11.7788 17.1241 12.4248 16.4339 12.9646C16.4162 12.9735 16.4073 12.9912 16.3896 13C16.071 13.2567 15.0799 13.9912 13.6108 14.5753C12.4604 15.0177 11.2392 15.2301 10.0002 15.2301C6.70819 15.2301 3.70819 13.708 1.75244 11.0797C1.33651 10.5222 1.33651 9.76995 1.75244 9.23013C2.15952 8.66376 2.6374 8.15933 3.15952 7.6903C3.69934 7.22128 4.96483 6.24783 6.86748 5.54871C7.87633 5.23013 8.92943 5.07084 10.0002 5.07084C13.2923 5.07084 16.2923 6.57526 18.2569 9.22128C18.6728 9.7788 18.6728 10.531 18.2569 11.0708Z" fill="#333333"/>
<path d="M12.4693 7.72582C12.4428 7.69043 12.4251 7.66388 12.3986 7.63733C11.8056 7.04441 11.0534 6.70812 10.2747 6.62848H10.2658C10.2216 6.61963 10.1685 6.61963 10.1242 6.61963C10.1154 6.61963 10.0977 6.61963 10.0888 6.61963C10.0534 6.61963 10.0269 6.61963 9.99148 6.61963C9.96493 6.61963 9.93838 6.61963 9.91183 6.61963C9.12422 6.61963 8.37201 6.86742 7.76139 7.35414C7.73484 7.37184 7.71714 7.38954 7.69059 7.41609C7.6021 7.48689 7.5136 7.56653 7.42511 7.65503C6.86758 8.21255 6.5136 8.91166 6.41626 9.69927C6.40741 9.77007 6.40741 9.84087 6.41626 9.91166C6.39856 9.98246 6.38086 10.0533 6.38086 10.1329C6.38086 11.0621 6.74369 11.9028 7.32776 12.5311C7.35431 12.5665 7.37201 12.5931 7.40741 12.6196C8.00033 13.2126 8.76139 13.5488 9.5313 13.6285H9.54015C9.59325 13.6373 9.63749 13.6373 9.69059 13.6373C9.69944 13.6373 9.71714 13.6373 9.72599 13.6373C9.76139 13.6373 9.78794 13.6373 9.82333 13.6373C9.84988 13.6373 9.87643 13.6373 9.90298 13.6373C10.5844 13.6373 11.2481 13.4515 11.8056 13.0798C12.0092 12.9471 12.2039 12.7878 12.3897 12.6108C12.9649 12.0356 13.3366 11.2833 13.3986 10.4692C13.4074 10.4249 13.4074 10.3807 13.3986 10.3364C13.4163 10.2745 13.4251 10.2037 13.4251 10.1329C13.4163 9.2037 13.0534 8.35414 12.4693 7.72582ZM10.2924 12.1595C10.2393 12.1683 10.195 12.1772 10.1419 12.1772C10.1242 12.1772 10.0977 12.186 10.08 12.186C10.018 12.1948 9.96493 12.1949 9.90298 12.1949C9.87643 12.1949 9.84988 12.1949 9.82333 12.1949C9.80563 12.1949 9.78794 12.1949 9.77024 12.1949C9.70829 12.1949 9.65519 12.186 9.59325 12.1772C9.5844 12.1772 9.5844 12.1772 9.57555 12.1772C8.5844 12.0179 7.81449 11.1506 7.81449 10.1152C7.81449 10.071 7.81449 10.0267 7.80564 9.99131C7.81449 9.94706 7.82334 9.91166 7.83219 9.86742C7.89413 9.39839 8.10652 8.98246 8.43395 8.65503C8.73484 8.35414 9.10652 8.1683 9.48705 8.08866C9.4959 8.08866 9.50475 8.07981 9.52245 8.07981C9.5667 8.07096 9.61094 8.07096 9.64634 8.06211C9.67289 8.06211 9.69944 8.05326 9.72599 8.05326C9.73484 8.05326 9.74369 8.05326 9.75254 8.05326C9.80563 8.05326 9.84988 8.04441 9.90298 8.04441C9.92953 8.04441 9.95608 8.04441 9.98263 8.04441C10.0003 8.04441 10.018 8.04441 10.0357 8.04441C10.0977 8.04441 10.1508 8.05326 10.2127 8.06211C10.2216 8.06211 10.2216 8.06211 10.2304 8.06211C11.2304 8.2214 11.9915 9.07981 11.9915 10.1241C11.9915 10.1506 11.9915 10.1772 11.9915 10.2037C11.9826 10.2391 11.9738 10.2833 11.9738 10.3187C11.9295 10.8055 11.7171 11.2391 11.372 11.5842C11.0623 11.894 10.6906 12.0798 10.2924 12.1595Z" fill="#333333"/>
</svg>
