<svg width="20" height="20" viewBox="0 0 20 20" fill="none" xmlns="http://www.w3.org/2000/svg">
<path d="M18.4425 2.66353C17.4336 1.61044 16.0885 1.02637 14.6372 1.02637C13.1858 1.02637 11.8407 1.61044 10.8319 2.66353L10 3.53079L9.16814 2.66353C8.15929 1.61044 6.81416 1.02637 5.36283 1.02637C3.9115 1.02637 2.56637 1.60159 1.55752 2.65469C0.557522 3.71663 0 5.10601 0 6.58389C0 8.06176 0.557522 9.45114 1.55752 10.5042L9.38053 18.7078C9.53982 18.8759 9.76106 18.9733 10 18.9733C10.2212 18.9733 10.4248 18.8936 10.5841 18.7432C10.5929 18.7343 10.6018 18.7255 10.6106 18.7166L18.4425 10.5219C19.4513 9.46884 20 8.07946 20 6.60159C20 5.11486 19.4425 3.71663 18.4425 2.66353ZM17.2124 9.34495C16.0089 10.6016 14.8142 11.8582 13.6106 13.1149C12.4071 14.3715 11.2035 15.6281 10.0088 16.8848L2.79646 9.3361C1.34513 7.81397 1.34513 5.3538 2.79646 3.83168C3.49558 3.09716 4.41593 2.69008 5.37168 2.69008C6.33628 2.69008 7.24779 3.09716 7.95575 3.83168L9.39823 5.34495C9.55752 5.51309 9.77876 5.61044 10.0177 5.61044C10.2389 5.61044 10.4425 5.53079 10.6018 5.3715C10.6106 5.36265 10.6195 5.3538 10.6283 5.34495L12.0619 3.84053C12.7611 3.10601 13.6814 2.69893 14.6372 2.69893C15.6018 2.69893 16.5133 3.10601 17.2124 3.84053C18.6549 5.36265 18.6549 7.83167 17.2124 9.34495Z" fill="#333333"/>
</svg>
