<svg width="20" height="20" viewBox="0 0 20 20" fill="none" xmlns="http://www.w3.org/2000/svg">
<path d="M7.2 1.5752C7.12 1.5752 7.12 1.5752 7.08 1.5752C7.04 1.5752 7 1.61521 6.96 1.61521C6.88 1.65521 6.8 1.69521 6.68 1.73521C6.48 1.85521 6.24 1.97521 6 2.13521L2.12 4.5352C1.92 4.65521 1.84 4.9352 1.96 5.1752C2.08 5.41519 2.36 5.4552 2.6 5.3352C2.6 5.3352 2.6 5.3352 2.64 5.3352L6.52 2.9352C6.76 2.77521 7 2.6552 7.16 2.5752C7.16 2.5752 7.16 2.5752 7.2 2.53521C9 4.0552 10.8 5.5352 12.56 7.0552C12.72 7.1752 12.92 7.21519 13.08 7.09519L17.28 4.5752L17.12 5.21521C17.04 5.45521 17.16 5.6952 17.4 5.7752C17.64 5.8552 17.88 5.73519 17.96 5.49519C17.96 5.45519 17.96 5.45521 18 5.41521L18.4 3.69519C18.44 3.45519 18.28 3.2152 18.04 3.1752L16.28 2.81521C16.24 2.81521 16.2 2.81521 16.2 2.81521C15.96 2.81521 15.72 3.0152 15.72 3.2552C15.72 3.4952 15.88 3.6952 16.08 3.7352L16.72 3.8552L12.84 6.21521C11.08 4.73521 9.28 3.2152 7.52 1.73521C7.36 1.57521 7.28 1.5752 7.2 1.5752ZM6 5.41521C5.88 5.41521 5.76 5.4152 5.64 5.4552C5.56 5.4552 5.52 5.4952 5.44 5.5352C5.36 5.5752 5.2 5.7352 5.2 5.9352V17.8552C5.2 18.0952 5.36 18.2152 5.44 18.2552C5.52 18.2952 5.6 18.3352 5.64 18.3352C5.76 18.3752 5.88 18.3752 6 18.3752H8.8C8.92 18.3752 9.04 18.3752 9.16 18.3352C9.24 18.2952 9.28 18.2952 9.36 18.2152C9.44 18.1352 9.56 18.0152 9.56 17.8152V5.9352C9.56 5.7352 9.44 5.6152 9.36 5.5352C9.28 5.4552 9.2 5.45521 9.16 5.41521C9.04 5.37521 8.92 5.3752 8.8 5.3752H6V5.41521ZM6.12 6.3352H8.72V17.4952H6.12V6.3352ZM16.36 6.61521C16.24 6.61521 16.12 6.6152 16 6.6552C15.92 6.6552 15.88 6.6952 15.8 6.7352C15.72 6.7752 15.6 6.9352 15.6 7.1352V17.7352C15.6 17.9352 15.72 18.0952 15.8 18.1352C15.88 18.1752 15.96 18.2152 16 18.2152C16.12 18.2552 16.24 18.2552 16.36 18.2552H19.2C19.32 18.2552 19.44 18.2552 19.56 18.2152C19.6 18.2152 19.68 18.1752 19.76 18.1352C19.84 18.0952 20 17.9752 20 17.6952V7.09519C20 6.85519 19.84 6.7352 19.76 6.6552C19.68 6.6152 19.64 6.57519 19.56 6.57519C19.44 6.53519 19.32 6.5352 19.2 6.5352H16.36V6.61521ZM0.8 7.1352C0.68 7.1352 0.56 7.13519 0.44 7.17519C0.4 7.17519 0.32 7.2152 0.24 7.2552C0.16 7.2952 0 7.4552 0 7.6552V17.8552C0 18.0552 0.12 18.2152 0.24 18.2552C0.32 18.2952 0.4 18.3352 0.44 18.3352C0.56 18.3752 0.68 18.3752 0.8 18.3752H3.6C3.72 18.3752 3.84 18.3752 3.96 18.3352C4 18.3352 4.08 18.2952 4.16 18.2552C4.24 18.2152 4.4 18.0952 4.4 17.8152V7.6552C4.4 7.4152 4.24 7.29521 4.16 7.21521C4.08 7.17521 4 7.1352 3.96 7.1352C3.84 7.0952 3.72 7.09519 3.6 7.09519H0.8V7.1352ZM16.48 7.5352H19.08V17.4152H16.48V7.5352ZM11.2 7.97519C11.08 7.97519 10.96 7.97521 10.84 8.01521C10.8 8.01521 10.72 8.05519 10.64 8.09519C10.6 8.13519 10.56 8.13521 10.48 8.21521C10.44 8.29521 10.36 8.4152 10.36 8.5352V17.8152C10.36 17.9352 10.44 18.0552 10.48 18.1352C10.52 18.2152 10.6 18.2152 10.64 18.2552C10.72 18.2952 10.76 18.2952 10.84 18.3352C10.96 18.3752 11.08 18.3752 11.2 18.3752H14.04C14.16 18.3752 14.28 18.3752 14.4 18.3352C14.44 18.3352 14.52 18.2952 14.6 18.2552C14.68 18.2152 14.84 18.0552 14.84 17.8552V8.57519C14.84 8.3352 14.68 8.21519 14.6 8.17519C14.52 8.13519 14.44 8.09519 14.4 8.09519C14.28 8.05519 14.2 8.0552 14.04 8.0552H11.2V7.97519ZM0.92 8.0552H3.52V17.4952H0.92V8.0552ZM11.28 8.8552H13.88V17.4152H11.28V8.8552Z" fill="#333333"/>
</svg>
