<svg width="122" height="106" viewBox="0 0 122 106" fill="none" xmlns="http://www.w3.org/2000/svg">
<g clip-path="url(#clip0)">
<path d="M89.6839 85.5133C105.802 69.2864 105.802 42.9773 89.6839 26.7504C73.5654 10.5235 47.4323 10.5235 31.3138 26.7504C15.1954 42.9773 15.1954 69.2864 31.3138 85.5133C47.4323 101.74 73.5654 101.74 89.6839 85.5133Z" fill="#F6F6FA"/>
<path opacity="0.73" d="M94.065 66.0831V80.1008C92.5425 82.2368 90.8214 84.2393 88.9679 86.1083V66.0831C88.9679 65.9496 86.4524 63.8804 84.5327 62.3451V61.4106L86.8496 60.8098C87.7763 60.5428 88.7693 60.6763 89.696 61.0101C90.0932 61.2103 90.4904 61.3438 90.9538 61.4773V63.2796C92.8735 64.9484 94.065 65.9496 94.065 66.0831Z" fill="#E9E9F4"/>
<path d="M1.78723 2.80354L13.9012 31.4396L22.7053 25.2985L27.8686 32.8413L28.7954 20.1587L39.453 13.6171L1.78723 2.80354Z" fill="#D9D9E2"/>
<path d="M24.6912 23.9635L13.9012 31.4396L22.7053 25.2985L27.8686 32.8413L28.7953 20.1587L11.7167 9.94586L24.6912 23.9635Z" fill="#CECED6"/>
<path d="M28.5306 23.296L11.7167 9.94586L28.7953 20.1587L28.5306 23.296Z" fill="#C5C5C9"/>
<path d="M28.0672 36.3791C28.001 35.8451 27.8686 35.2443 27.7362 34.7103L28.5968 34.5101C28.7292 35.0441 28.8615 35.6448 28.9939 36.2456L28.0672 36.3791Z" fill="#E9E9F4"/>
<path d="M18.0715 55.8035C16.8138 55.7368 15.6223 55.3363 14.6293 54.6688L15.0927 53.9345C15.9533 54.5353 17.0124 54.869 18.1377 54.9358L18.0715 55.8035ZM21.58 55.136L21.1828 54.335C22.0433 53.8678 22.9701 53.2003 23.7644 52.2658L24.4264 52.8665C23.5658 53.8678 22.5729 54.602 21.58 55.136ZM12.1801 51.932C11.7167 50.9307 11.4519 49.8627 11.4519 48.7947C11.4519 48.728 11.4519 48.5945 11.4519 48.5277V48.3275L12.3125 48.3942V48.5277C12.3125 48.5945 12.3125 48.6612 12.3125 48.728C12.3125 49.6625 12.511 50.597 12.9744 51.4648L12.1801 51.932ZM45.4107 51.7318V50.864C46.536 50.864 47.6613 50.7972 48.8529 50.7305L48.9191 51.5983C47.7275 51.665 46.536 51.665 45.4107 51.7318ZM41.9685 51.5983L41.4389 51.5315C40.3797 51.4647 39.453 51.3312 38.5262 51.131L38.6586 50.2632C39.5192 50.3967 40.4459 50.5302 41.5051 50.597L42.0346 50.6637L41.9685 51.5983ZM52.3613 51.1977L52.2289 50.33C53.3542 50.1965 54.4796 49.9962 55.6049 49.796L55.7373 50.6637C54.612 50.864 53.4866 51.0642 52.3613 51.1977ZM35.084 50.33C34.0911 49.9962 33.0981 49.529 32.3038 49.0617C32.1714 48.995 32.039 48.9282 31.9066 48.7947L32.37 48.0605C32.5024 48.1272 32.6348 48.194 32.7671 48.2607C33.5615 48.728 34.4883 49.1285 35.415 49.4622L35.084 50.33ZM26.4785 49.9962L25.7503 49.5957C26.2799 48.5945 26.8095 47.5932 27.1405 46.5252L27.9348 46.7922C27.5376 47.8602 27.0743 48.9282 26.4785 49.9962ZM59.1795 49.8627L58.9809 48.995C60.0401 48.728 61.1654 48.461 62.2908 48.1272L62.5555 48.9282C61.364 49.3287 60.2387 49.5957 59.1795 49.8627ZM65.8654 47.9937L65.6006 47.1927C66.6597 46.859 67.785 46.4585 68.8442 46.0579L69.109 46.859C68.0498 47.2595 66.9245 47.5932 65.8654 47.9937ZM28.994 46.7922C28.1996 46.1914 27.339 45.5907 26.4123 45.1234L26.1475 44.9899L26.5447 44.1889C26.6771 44.2557 26.7433 44.3224 26.8757 44.3224C27.8686 44.8564 28.7292 45.5239 29.5235 46.0579L28.994 46.7922ZM13.5702 45.5239L12.9744 44.9232C13.7026 44.1889 14.7617 43.5882 16.1518 43.1877L16.4166 43.9887C15.0927 44.3892 14.166 44.8564 13.5702 45.5239ZM22.9701 43.8552C21.9771 43.6549 20.9842 43.5214 19.9912 43.5214H19.6603V42.6537C20.8518 42.6537 22.0433 42.7204 23.1687 42.9874L22.9701 43.8552ZM28.8616 43.3212L28.001 43.1877C28.1996 42.0529 28.332 40.9181 28.332 39.7834H29.1925C29.1925 40.9849 29.0602 42.1197 28.8616 43.3212Z" fill="#E9E9F4"/>
<path d="M72.4188 45.5907L72.0878 44.7897C72.6173 44.5894 73.1469 44.3892 73.6765 44.1889L74.0075 44.9899C73.4779 45.1902 72.9483 45.3904 72.4188 45.5907Z" fill="#E9E9F4"/>
<path d="M99.427 66.6839C98.9636 66.6839 98.6326 66.3502 98.5664 65.8829C98.5003 65.4156 98.8974 65.0151 99.3608 64.9484C104.524 64.4144 109.29 61.9446 112.799 57.9396C113.13 57.6058 113.659 57.5391 113.99 57.8728C114.321 58.2066 114.387 58.7406 114.056 59.0743C110.283 63.4131 105.12 66.1499 99.4932 66.6839C99.4932 66.6839 99.4932 66.6839 99.427 66.6839Z" fill="#E9E9F4"/>
<path d="M88.968 66.0831L59.0472 83.8388L29.1926 66.0831V66.0164C29.1926 65.8829 30.8475 64.4811 33.363 62.4786L33.4292 62.4118C41.7038 55.67 59.0472 41.8527 59.0472 41.8527C59.0472 41.8527 76.4569 55.67 84.6652 62.4786C87.2469 64.5479 88.968 65.9496 88.968 66.0831Z" fill="#7A4C08"/>
<path d="M71.3598 27.1008H39.1221C36.3419 27.1008 34.0912 29.3703 34.0912 32.1738V81.369C34.0912 84.1726 36.3419 86.4421 39.1221 86.4421H79.5681C82.3484 86.4421 84.5991 84.1726 84.5991 81.369V40.3841L71.3598 27.1008Z" fill="white"/>
<path d="M71.3597 35.3111C71.3597 38.1146 73.6104 40.3841 76.3907 40.3841H84.5328L71.3597 27.1008V35.3111Z" fill="#E6E8E8"/>
<path d="M54.612 35.4446H43.491C42.4981 35.4446 41.7037 36.2456 41.7037 37.2469V48.461C41.7037 49.4622 42.4981 50.2632 43.491 50.2632H54.612C55.605 50.2632 56.3993 49.4622 56.3993 48.461V37.2469C56.3993 36.2456 55.605 35.4446 54.612 35.4446Z" fill="#E9E9F4"/>
<path d="M69.9034 54.335H43.1601C42.3657 54.335 41.7037 55.0025 41.7037 55.8035C41.7037 56.6045 42.3657 57.2721 43.1601 57.2721H69.9034C70.6978 57.2721 71.3597 56.6045 71.3597 55.8035C71.3597 55.0025 70.6978 54.335 69.9034 54.335Z" fill="#D9DBDB"/>
<path d="M69.9034 61.6108H43.1601C42.3657 61.6108 41.7037 62.2783 41.7037 63.0794C41.7037 63.8804 42.3657 64.5479 43.1601 64.5479H69.9034C70.6978 64.5479 71.3597 63.8804 71.3597 63.0794C71.3597 62.2116 70.6978 61.6108 69.9034 61.6108Z" fill="#D9DBDB"/>
<path d="M57.7894 68.6197H43.2262C42.4319 68.6197 41.7699 69.2872 41.7699 70.0882C41.7699 70.8892 42.4319 71.5567 43.2262 71.5567H57.7894C58.5838 71.5567 59.2458 70.8892 59.2458 70.0882C59.1796 69.2204 58.5838 68.6197 57.7894 68.6197Z" fill="#D9DBDB"/>
<path d="M88.968 66.0831V94.9862C88.968 96.9887 87.3131 98.6574 85.3272 98.6574H32.8334C30.8475 98.6574 29.1926 96.9887 29.1926 94.9862V66.0831L59.1134 83.8388L88.968 66.0831Z" fill="#D9D9E2"/>
<path d="M87.975 97.5894L68.7119 78.165L59.0472 83.9056L49.3825 78.165L30.1194 97.5894C30.7813 98.3237 31.7081 98.7242 32.7672 98.7242H85.3272C86.3863 98.7242 87.3131 98.2569 87.975 97.5894Z" fill="#CECED6"/>
<path d="M94.9918 26.3665C86.3862 27.2343 79.5018 34.3766 78.906 43.0542C78.5751 47.393 79.8328 51.398 82.0835 54.6688C82.944 55.8703 83.0764 57.4723 82.4807 58.8741L81.0905 62.3451L86.9158 60.8098C87.8426 60.5428 88.8355 60.6096 89.7623 61.0101C92.4763 62.2116 95.4552 62.7456 98.6988 62.4118C107.172 61.6108 113.99 54.7355 114.785 46.1914C115.844 34.7771 106.378 25.2985 94.9918 26.3665Z" fill="#28A87F"/>
<path d="M97.3087 53.6008L98.3016 52.5995C98.3016 52.5995 97.5073 50.7305 100.817 47.5932C102.803 45.7242 103.2 43.9219 103.068 42.4534C102.803 40.1171 100.883 38.1814 98.5664 37.9144C97.1101 37.7809 95.3228 38.1814 93.4693 40.1839C90.358 43.5214 88.5045 42.7204 88.5045 42.7204L87.5116 43.7217L97.3087 53.6008Z" fill="white"/>
<path d="M89.696 47.4597C88.9017 48.5277 89.0341 50.063 89.9608 50.9975C90.8876 51.932 92.4101 52.0655 93.4692 51.2645L89.696 47.4597Z" fill="white"/>
<path d="M103.73 39.0491L103.134 39.6499C102.671 38.9156 102.009 38.2481 101.214 37.7809L101.81 37.1801C102.34 36.6461 103.2 36.6461 103.73 37.1801C104.193 37.7141 104.193 38.5151 103.73 39.0491Z" fill="white"/>
<path d="M2.78022 11.2809L6.6858 20.359C6.88439 20.8262 6.6858 21.3602 6.22243 21.5605L6.09004 21.6272C5.62666 21.8275 5.09709 21.6272 4.8985 21.16L1.1253 12.0151C0.926716 11.5479 1.1915 11.0139 1.65488 10.8136C2.11825 10.6134 2.64782 10.8136 2.78022 11.2809Z" fill="#D9D9E2"/>
<path d="M18.2039 75.1612C16.6152 75.1612 15.2913 76.4962 15.2913 78.0983C15.2913 79.7003 16.6152 81.0353 18.2039 81.0353C19.7926 81.0353 21.1165 79.7003 21.1165 78.0983C21.0503 76.4962 19.7926 75.1612 18.2039 75.1612ZM18.2039 79.233C17.5419 79.233 17.0124 78.699 17.0124 78.0315C17.0124 77.364 17.5419 76.83 18.2039 76.83C18.8659 76.83 19.3954 77.364 19.3954 78.0315C19.3292 78.699 18.7997 79.233 18.2039 79.233Z" fill="#F6F6FA"/>
<path d="M95.4551 86.9093C93.8664 86.9093 92.5425 88.2444 92.5425 89.8464C92.5425 91.4484 93.8664 92.7834 95.4551 92.7834C97.0438 92.7834 98.3678 91.4484 98.3678 89.8464C98.3678 88.2444 97.0438 86.9093 95.4551 86.9093ZM95.4551 91.0479C94.7932 91.0479 94.2636 90.5139 94.2636 89.8464C94.2636 89.1789 94.7932 88.6449 95.4551 88.6449C96.1171 88.6449 96.6467 89.1789 96.6467 89.8464C96.6467 90.5139 96.1171 91.0479 95.4551 91.0479Z" fill="#F6F6FA"/>
<path d="M119.021 41.7859C117.829 41.7859 116.837 42.7872 116.837 43.9887C116.837 45.1902 117.829 46.1914 119.021 46.1914C120.213 46.1914 121.206 45.1902 121.206 43.9887C121.272 42.7872 120.279 41.7859 119.021 41.7859ZM119.021 44.9232C118.558 44.9232 118.094 44.5227 118.094 43.9887C118.094 43.5214 118.491 43.0542 119.021 43.0542C119.484 43.0542 119.948 43.4547 119.948 43.9887C119.948 44.4559 119.551 44.9232 119.021 44.9232Z" fill="#F6F6FA"/>
<path d="M80.1638 6.14107C78.9061 6.14107 77.8469 7.20908 77.8469 8.47734C77.8469 9.7456 78.9061 10.8136 80.1638 10.8136C81.4215 10.8136 82.4807 9.7456 82.4807 8.47734C82.4807 7.20908 81.4877 6.14107 80.1638 6.14107ZM80.1638 9.4786C79.6342 9.4786 79.237 9.0781 79.237 8.54409C79.237 8.01009 79.6342 7.60958 80.1638 7.60958C80.6934 7.60958 81.0906 8.01009 81.0906 8.54409C81.0906 9.01135 80.6934 9.4786 80.1638 9.4786Z" fill="#F6F6FA"/>
<path d="M5.49419 61.0101C4.17026 61.0101 3.04492 62.1448 3.04492 63.4799C3.04492 64.8149 4.17026 65.9496 5.49419 65.9496C6.81812 65.9496 7.94346 64.8149 7.94346 63.4799C7.94346 62.0781 6.81812 61.0101 5.49419 61.0101Z" fill="#F6F6FA"/>
<path d="M103.994 69.2204C103.002 69.2204 102.207 70.0214 102.207 71.0227C102.207 72.0239 103.002 72.8249 103.994 72.8249C104.987 72.8249 105.782 72.0239 105.782 71.0227C105.782 70.0214 104.987 69.2204 103.994 69.2204Z" fill="#F6F6FA"/>
<path d="M44.8811 6.87534C43.4248 6.87534 42.2994 8.07685 42.2994 9.47861C42.2994 10.8804 43.491 12.0819 44.8811 12.0819C46.3374 12.0819 47.4628 10.8804 47.4628 9.47861C47.4628 8.07685 46.2712 6.87534 44.8811 6.87534Z" fill="#F6F6FA"/>
<path d="M58.8485 102.195C57.7894 102.195 56.9288 103.063 56.9288 104.131C56.9288 105.199 57.7894 106.067 58.8485 106.067C59.9077 106.067 60.7682 105.199 60.7682 104.131C60.702 103.063 59.8415 102.195 58.8485 102.195Z" fill="#F6F6FA"/>
<path d="M95.6537 17.0214C94.396 17.0214 93.4031 18.0227 93.4031 19.2909C93.4031 20.5592 94.396 21.5605 95.6537 21.5605C96.9115 21.5605 97.9044 20.5592 97.9044 19.2909C97.8382 18.0227 96.8453 17.0214 95.6537 17.0214Z" fill="#F6F6FA"/>
<path d="M16.549 37.0466C17.2436 37.0466 17.8067 36.4788 17.8067 35.7784C17.8067 35.0779 17.2436 34.5101 16.549 34.5101C15.8544 34.5101 15.2913 35.0779 15.2913 35.7784C15.2913 36.4788 15.8544 37.0466 16.549 37.0466Z" fill="#F6F6FA"/>
<path d="M119.815 30.5718C118.624 30.5718 117.631 31.5731 117.631 32.7746C117.631 33.9761 118.624 34.9774 119.815 34.9774C121.007 34.9774 122 33.9761 122 32.7746C122 31.5063 121.007 30.5718 119.815 30.5718Z" fill="#F6F6FA"/>
<path d="M4.30272 44.9232C5.07047 44.9232 5.69285 44.2956 5.69285 43.5214C5.69285 42.7472 5.07047 42.1197 4.30272 42.1197C3.53498 42.1197 2.9126 42.7472 2.9126 43.5214C2.9126 44.2956 3.53498 44.9232 4.30272 44.9232Z" fill="#F6F6FA"/>
<path d="M62.4232 2.20279L63.2837 1.33503C63.6147 1.00127 63.6147 0.534019 63.2837 0.200266C62.9528 -0.133487 62.4894 -0.133487 62.1584 0.200266L61.2978 1.06802L60.4373 0.200266C60.1063 -0.133487 59.6429 -0.133487 59.312 0.200266C58.981 0.534019 58.981 1.00127 59.312 1.33503L60.2387 2.20279L59.3782 3.07054C59.0472 3.4043 59.0472 3.87155 59.3782 4.2053C59.7091 4.53906 60.1725 4.53906 60.5035 4.2053L61.2978 3.33755L62.1584 4.2053C62.4894 4.53906 62.9528 4.53906 63.2837 4.2053C63.6147 3.87155 63.6147 3.4043 63.2837 3.07054L62.4232 2.20279Z" fill="#F6F6FA"/>
<path d="M3.30966 28.7028L4.17022 27.835C4.5012 27.5013 4.5012 27.034 4.17022 26.7003C3.83923 26.3665 3.37586 26.3665 3.04488 26.7003L2.18432 27.568L1.32377 26.7003C0.992789 26.3665 0.529414 26.3665 0.198432 26.7003C-0.13255 27.034 -0.13255 27.5013 0.198432 27.835L1.12518 28.7028L0.264628 29.5705C-0.0663538 29.9043 -0.0663538 30.3716 0.264628 30.7053C0.59561 31.0391 1.05899 31.0391 1.38997 30.7053L2.25052 29.8375L3.11107 30.7053C3.44206 31.0391 3.90543 31.0391 4.23641 30.7053C4.5674 30.3716 4.5674 29.9043 4.23641 29.5705L3.30966 28.7028Z" fill="#F6F6FA"/>
<path d="M105.716 82.17L106.444 81.4358C106.708 81.1688 106.708 80.7683 106.444 80.5013C106.179 80.2343 105.782 80.2343 105.517 80.5013L104.789 81.2355L104.061 80.5013C103.796 80.2343 103.399 80.2343 103.134 80.5013C102.869 80.7683 102.869 81.1688 103.134 81.4358L103.862 82.17L103.134 82.9043C102.869 83.1713 102.869 83.5718 103.134 83.8388C103.399 84.1058 103.796 84.1058 104.061 83.8388L104.789 83.1045L105.517 83.8388C105.782 84.1058 106.179 84.1058 106.444 83.8388C106.708 83.5718 106.708 83.1713 106.444 82.9043L105.716 82.17Z" fill="#F6F6FA"/>
</g>
<defs>
<clipPath id="clip0">
<rect width="122" height="106" fill="white"/>
</clipPath>
</defs>
</svg>
