<svg width="20" height="20" viewBox="0 0 20 20" fill="none" xmlns="http://www.w3.org/2000/svg">
<g clip-path="url(#clip0)">
<path d="M5.44083 0H0V5.45349H5.44083V0ZM4.53596 4.54651H0.904871V0.906975H4.53596V4.54651Z" fill="#333333"/>
<path d="M5.44083 7.26758H0V12.7211H5.44083V7.26758ZM4.53596 11.8141H0.904871V8.17455H4.53596V11.8141Z" fill="#333333"/>
<path d="M0 19.9999H5.44083V14.5464H0V19.9999ZM0.904871 15.4534H4.53596V19.0929H0.904871V15.4534Z" fill="#333333"/>
<path d="M7.26221 0V5.45349H20.0116V0H7.26221ZM19.0951 4.54651H8.15548V0.906975H19.0951V4.54651Z" fill="#333333"/>
<path d="M7.26221 7.26758V12.7211H20.0116V7.26758H7.26221ZM19.0951 11.8141H8.15548V8.17455H19.0951V11.8141Z" fill="#333333"/>
<path d="M7.26221 14.5464V19.9999H20.0116V14.5464H7.26221ZM19.0951 19.0929H8.15548V15.4534H19.0951V19.0929Z" fill="#333333"/>
</g>
<defs>
<clipPath id="clip0">
<rect width="20" height="20" fill="white"/>
</clipPath>
</defs>
</svg>
