<svg width="20" height="20" viewBox="0 0 20 20" fill="none" xmlns="http://www.w3.org/2000/svg">
<g clip-path="url(#clip0)">
<path d="M10 0C5.66373 0 2.1416 3.52212 2.1416 7.85841C2.1416 8.80531 2.31859 9.75221 2.76992 10.7876C3.25665 12.1062 4.2655 13.5841 5.38939 15.1327C6.51328 16.6903 7.76107 18.292 8.69027 19.6903C8.82302 19.885 9.03541 20.0089 9.28319 20.0089C9.50443 20.0089 9.69912 19.9115 9.83187 19.7522C10.9912 18.3628 12.5929 16.7611 14.0177 15.2124C15.4336 13.6726 16.6903 12.2389 17.1947 10.8673C17.6549 9.85841 17.8496 8.86726 17.8496 7.86726C17.8584 3.52212 14.3274 0 10 0ZM10 1.42478C13.5575 1.42478 16.4248 4.29204 16.4248 7.84956C16.4248 8.68142 16.2743 9.44248 15.885 10.2832C15.8761 10.292 15.8673 10.3097 15.8673 10.3363V10.3451C15.5398 11.2389 14.3717 12.7168 12.9735 14.2301C11.7788 15.531 10.4867 16.8761 9.35399 18.1593C8.46904 16.8938 7.47788 15.5752 6.54868 14.2832C5.44249 12.7522 4.47788 11.292 4.11505 10.2743C4.1062 10.2566 4.1062 10.2389 4.09735 10.2301C3.70797 9.34513 3.58408 8.63717 3.58408 7.84956C3.57523 4.30088 6.44249 1.43363 10 1.42478ZM10 4.28319C8.03541 4.28319 6.42479 5.89381 6.42479 7.85841C6.42479 9.82301 8.03541 11.4336 10 11.4336C11.9646 11.4336 13.5752 9.82301 13.5752 7.85841C13.5752 5.89381 11.9646 4.28319 10 4.28319ZM10 5.71681C11.1947 5.71681 12.1416 6.66372 12.1416 7.85841C12.1416 9.0531 11.1947 10 10 10C8.80532 10 7.85842 9.0531 7.85842 7.85841C7.85842 6.66372 8.80532 5.71681 10 5.71681Z" fill="#333333"/>
</g>
<defs>
<clipPath id="clip0">
<rect width="20" height="20" fill="white"/>
</clipPath>
</defs>
</svg>
