<svg width="20" height="20" viewBox="0 0 20 20" fill="none" xmlns="http://www.w3.org/2000/svg">
<g clip-path="url(#clip0)">
<path d="M9.92474 16.8356C6.12192 16.8356 3.03271 13.7464 3.03271 9.94356V9.03276C3.03271 8.60084 3.38013 8.25342 3.81206 8.25342C4.24398 8.25342 4.5914 8.60084 4.5914 9.03276V9.94356C4.5914 12.8825 6.98577 15.2769 9.92474 15.2769H10.0844C13.0233 15.2769 15.4177 12.8825 15.4177 9.94356V9.03276C15.4177 8.60084 15.7651 8.25342 16.197 8.25342C16.629 8.25342 16.9764 8.60084 16.9764 9.03276V9.94356C16.9764 13.7464 13.8872 16.8356 10.0844 16.8356H9.92474Z" fill="#333333"/>
<path d="M9.9249 14.047C7.55871 14.047 5.63382 12.1221 5.63382 9.75587V4.29108C5.62443 1.92488 7.55871 0 9.9249 0H10.0845C12.4507 0 14.3756 1.92488 14.3756 4.29108V9.75587C14.3756 12.1221 12.4507 14.047 10.0845 14.047H9.9249ZM9.9249 1.55869C8.41317 1.55869 7.18312 2.78873 7.18312 4.29108V9.75587C7.18312 11.2676 8.41317 12.4977 9.9249 12.4977H10.0845C11.5963 12.4977 12.8263 11.2676 12.8263 9.75587V4.29108C12.8263 2.77934 11.5963 1.5493 10.0845 1.5493H9.9249V1.55869Z" fill="#333333"/>
<path d="M5.99028 20.0001C5.55836 20.0001 5.21094 19.6527 5.21094 19.2207C5.21094 18.7888 5.55836 18.4414 5.99028 18.4414H14.0091C14.441 18.4414 14.7884 18.7888 14.7884 19.2207C14.7884 19.6527 14.441 20.0001 14.0091 20.0001H5.99028Z" fill="#333333"/>
<path d="M10.7794 16.1128H9.2207V20.0001H10.7794V16.1128Z" fill="#333333"/>
</g>
<defs>
<clipPath id="clip0">
<rect width="20" height="20" fill="white"/>
</clipPath>
</defs>
</svg>
