<svg width="20" height="20" viewBox="0 0 20 20" fill="none" xmlns="http://www.w3.org/2000/svg">
<path d="M1.36283 2.27441C0.619469 2.27441 0 2.88503 0 3.63725V13.1859C0 13.9293 0.619469 14.5487 1.36283 14.5487H12.3363C12.6637 16.3541 14.2389 17.7346 16.1327 17.7346C18.2655 17.7346 20 16.0001 20 13.8673C20 11.9735 18.6195 10.3895 16.8142 10.0709V3.63725C16.8142 2.89388 16.1947 2.27441 15.4513 2.27441H1.36283ZM1.36283 3.18592H15.4513C15.708 3.18592 15.9027 3.38061 15.9027 3.63725V10.0178C15.1327 10.062 14.4248 10.3275 13.8407 10.7523L11.1947 8.51335C11.0442 8.38946 10.8319 8.37176 10.6637 8.47795L8.43363 9.90273L5.50443 7.60185C5.41593 7.53105 5.31858 7.49565 5.20354 7.5045C5.12389 7.5045 5.0354 7.53105 4.97345 7.58415L0.902655 10.2567V3.63725C0.911504 3.38061 1.10619 3.18592 1.36283 3.18592ZM9.31858 3.86733C8.19469 3.86733 7.27434 4.78769 7.27434 5.91158C7.27434 7.03548 8.19469 7.95583 9.31858 7.95583C10.4425 7.95583 11.3628 7.03548 11.3628 5.91158C11.3628 4.78769 10.4425 3.86733 9.31858 3.86733ZM9.31858 4.76999C9.95575 4.76999 10.4513 5.27441 10.4513 5.90273C10.4513 6.53105 9.9469 7.03548 9.31858 7.03548C8.69027 7.03548 8.18584 6.53105 8.18584 5.90273C8.18584 5.27441 8.68142 4.76999 9.31858 4.76999ZM5.19469 8.5045L8.12389 10.8054C8.27434 10.9293 8.48673 10.9381 8.64602 10.8319L10.8673 9.41601L13.177 11.3718C12.6549 11.9912 12.3363 12.7788 12.2832 13.6284H1.36283C1.10619 13.6284 0.911504 13.4337 0.911504 13.1771V11.3275L5.19469 8.5045ZM16.1327 10.9116C17.7699 10.9116 19.0885 12.2302 19.0885 13.8673C19.0885 15.5045 17.7699 16.8142 16.1327 16.8142C14.4956 16.8142 13.1858 15.5045 13.1858 13.8673C13.1858 12.2302 14.4956 10.9116 16.1327 10.9116ZM16.0885 11.8142C15.8584 11.8408 15.6814 12.0443 15.6814 12.2744V13.4072H14.5487C14.531 13.4072 14.5221 13.4072 14.5044 13.4072C14.2566 13.416 14.0619 13.6284 14.0708 13.885C14.0796 14.1328 14.292 14.3275 14.5487 14.3187H15.6814V15.4514C15.6814 15.6992 15.8761 15.9116 16.1327 15.9116C16.3805 15.9116 16.5929 15.7169 16.5929 15.4603V15.4514V14.3187H17.7257C17.9735 14.3187 18.1858 14.124 18.1858 13.8673C18.1858 13.6107 17.9911 13.4072 17.7345 13.4072H17.7257H16.5929V12.2744C16.5929 12.0266 16.3982 11.8142 16.1416 11.8142C16.1327 11.8142 16.1327 11.8142 16.1239 11.8142C16.115 11.8142 16.0973 11.8142 16.0885 11.8142Z" fill="black"/>
</svg>
