<svg width="171" height="59" viewBox="0 0 171 59" fill="none" xmlns="http://www.w3.org/2000/svg">
<path d="M32.575 52V41.5H38.515V42.7H33.85V45.715C34.38 45.655 34.915 45.625 35.455 45.625C36.615 45.625 37.515 45.9 38.155 46.45C38.805 47 39.13 47.755 39.13 48.715C39.13 49.785 38.775 50.61 38.065 51.19C37.365 51.77 36.375 52.06 35.095 52.06C34.885 52.06 34.41 52.05 33.67 52.03C33.53 52.03 33.37 52.025 33.19 52.015C33.02 52.015 32.885 52.01 32.785 52C32.695 52 32.625 52 32.575 52ZM35.38 46.825C34.92 46.825 34.41 46.855 33.85 46.915V50.8C34.4 50.84 34.88 50.86 35.29 50.86C36.13 50.86 36.765 50.685 37.195 50.335C37.635 49.975 37.855 49.465 37.855 48.805C37.855 48.185 37.64 47.7 37.21 47.35C36.79 47 36.18 46.825 35.38 46.825ZM46.5896 50.32L46.9646 51.265C46.3146 51.855 45.4696 52.15 44.4296 52.15C43.3296 52.15 42.4546 51.83 41.8046 51.19C41.1446 50.55 40.8146 49.695 40.8146 48.625C40.8146 47.615 41.1246 46.775 41.7446 46.105C42.3546 45.435 43.2046 45.1 44.2946 45.1C45.1946 45.1 45.9396 45.39 46.5296 45.97C47.1296 46.54 47.4296 47.28 47.4296 48.19C47.4296 48.48 47.4046 48.75 47.3546 49H42.1646C42.2146 49.63 42.4496 50.125 42.8696 50.485C43.2996 50.845 43.8496 51.025 44.5196 51.025C45.3996 51.025 46.0896 50.79 46.5896 50.32ZM44.2346 46.225C43.6446 46.225 43.1546 46.39 42.7646 46.72C42.3846 47.05 42.1596 47.485 42.0896 48.025H46.1846C46.1546 47.465 45.9646 47.025 45.6146 46.705C45.2746 46.385 44.8146 46.225 44.2346 46.225ZM54.1596 50.155L54.7296 51.025C54.1496 51.775 53.2846 52.15 52.1346 52.15C51.0546 52.15 50.1796 51.83 49.5096 51.19C48.8496 50.55 48.5196 49.695 48.5196 48.625C48.5196 47.635 48.8446 46.8 49.4946 46.12C50.1446 45.44 50.9596 45.1 51.9396 45.1C53.1196 45.1 54.0046 45.395 54.5946 45.985L54.0396 46.93C53.5196 46.46 52.8746 46.225 52.1046 46.225C51.4746 46.225 50.9296 46.455 50.4696 46.915C50.0196 47.365 49.7946 47.935 49.7946 48.625C49.7946 49.355 50.0246 49.935 50.4846 50.365C50.9546 50.805 51.5346 51.025 52.2246 51.025C53.0046 51.025 53.6496 50.735 54.1596 50.155ZM62.3689 52H61.1689V46.375H57.4939V52H56.2939V45.25H62.3689V52ZM70.3609 52H69.1609V46.45H66.7909L66.7159 47.59C66.6359 48.52 66.5159 49.295 66.3559 49.915C66.2059 50.525 66.0059 50.985 65.7559 51.295C65.5159 51.595 65.2609 51.805 64.9909 51.925C64.7209 52.035 64.3909 52.09 64.0009 52.09L63.9109 50.92C64.0209 50.93 64.1359 50.915 64.2559 50.875C64.3759 50.825 64.5059 50.725 64.6459 50.575C64.7959 50.425 64.9259 50.225 65.0359 49.975C65.1559 49.725 65.2609 49.375 65.3509 48.925C65.4509 48.465 65.5159 47.94 65.5459 47.35L65.6659 45.25H70.3609V52ZM72.8843 46.675L72.5693 45.715C73.2393 45.305 73.9893 45.1 74.8193 45.1C75.7293 45.1 76.3893 45.325 76.7993 45.775C77.2093 46.225 77.4143 46.92 77.4143 47.86V52H76.2743V51.13C75.7443 51.78 75.0243 52.105 74.1143 52.105C73.4943 52.105 72.9943 51.92 72.6143 51.55C72.2343 51.17 72.0443 50.66 72.0443 50.02C72.0443 49.36 72.2793 48.84 72.7493 48.46C73.2193 48.07 73.8343 47.875 74.5943 47.875C75.3043 47.875 75.8643 48.02 76.2743 48.31C76.2743 47.55 76.1693 47.005 75.9593 46.675C75.7493 46.345 75.3443 46.18 74.7443 46.18C74.1343 46.18 73.5143 46.345 72.8843 46.675ZM74.5343 51.025C75.2043 51.025 75.7843 50.735 76.2743 50.155V49.3C75.8543 49 75.3493 48.85 74.7593 48.85C74.3493 48.85 74.0043 48.95 73.7243 49.15C73.4543 49.34 73.3193 49.61 73.3193 49.96C73.3193 50.29 73.4243 50.55 73.6343 50.74C73.8543 50.93 74.1543 51.025 74.5343 51.025ZM81.0438 46.45H78.5688V45.25H84.7188V46.45H82.2438V52H81.0438V46.45ZM92.1802 52H90.9802V49.15H87.2302V52H86.0302V45.25H87.2302V48.025H90.9802V45.25H92.1802V52ZM94.7105 46.675L94.3955 45.715C95.0655 45.305 95.8155 45.1 96.6455 45.1C97.5555 45.1 98.2155 45.325 98.6255 45.775C99.0355 46.225 99.2405 46.92 99.2405 47.86V52H98.1005V51.13C97.5705 51.78 96.8505 52.105 95.9405 52.105C95.3205 52.105 94.8205 51.92 94.4405 51.55C94.0605 51.17 93.8705 50.66 93.8705 50.02C93.8705 49.36 94.1055 48.84 94.5755 48.46C95.0455 48.07 95.6605 47.875 96.4205 47.875C97.1305 47.875 97.6905 48.02 98.1005 48.31C98.1005 47.55 97.9955 47.005 97.7855 46.675C97.5755 46.345 97.1705 46.18 96.5705 46.18C95.9605 46.18 95.3405 46.345 94.7105 46.675ZM96.3605 51.025C97.0305 51.025 97.6105 50.735 98.1005 50.155V49.3C97.6805 49 97.1755 48.85 96.5855 48.85C96.1755 48.85 95.8305 48.95 95.5505 49.15C95.2805 49.34 95.1455 49.61 95.1455 49.96C95.1455 50.29 95.2505 50.55 95.4605 50.74C95.6805 50.93 95.9805 51.025 96.3605 51.025ZM104.205 45.25H106.305V52H105.105V49.75H103.8L102.15 52H100.695L102.645 49.45C102.235 49.36 101.89 49.14 101.61 48.79C101.33 48.43 101.19 48 101.19 47.5C101.19 46.81 101.44 46.265 101.94 45.865C102.44 45.455 103.195 45.25 104.205 45.25ZM102.465 47.53C102.465 47.85 102.59 48.115 102.84 48.325C103.09 48.525 103.385 48.625 103.725 48.625H105.105V46.375H104.01C103.5 46.375 103.115 46.48 102.855 46.69C102.595 46.9 102.465 47.18 102.465 47.53ZM112.05 53.65H110.925V50.875H111.765C112.015 50.565 112.235 50.065 112.425 49.375C112.615 48.675 112.74 47.895 112.8 47.035L112.905 45.25H117.51V50.875H118.635V53.65H117.51V52H112.05V53.65ZM114.03 46.375L113.955 47.5C113.895 48.25 113.775 48.935 113.595 49.555C113.415 50.175 113.23 50.615 113.04 50.875H116.31V46.375H114.03ZM120.481 51.16C119.821 50.48 119.491 49.635 119.491 48.625C119.491 47.605 119.821 46.765 120.481 46.105C121.151 45.435 122.021 45.1 123.091 45.1C124.161 45.1 125.026 45.435 125.686 46.105C126.356 46.765 126.691 47.605 126.691 48.625C126.691 49.645 126.356 50.49 125.686 51.16C125.026 51.82 124.161 52.15 123.091 52.15C122.031 52.15 121.161 51.82 120.481 51.16ZM121.426 46.9C120.986 47.34 120.766 47.915 120.766 48.625C120.766 49.335 120.981 49.91 121.411 50.35C121.851 50.8 122.411 51.025 123.091 51.025C123.771 51.025 124.326 50.805 124.756 50.365C125.196 49.915 125.416 49.335 125.416 48.625C125.416 47.935 125.196 47.36 124.756 46.9C124.326 46.45 123.771 46.225 123.091 46.225C122.411 46.225 121.856 46.45 121.426 46.9ZM133.613 50.155L134.183 51.025C133.603 51.775 132.738 52.15 131.588 52.15C130.508 52.15 129.633 51.83 128.963 51.19C128.303 50.55 127.973 49.695 127.973 48.625C127.973 47.635 128.298 46.8 128.948 46.12C129.598 45.44 130.413 45.1 131.393 45.1C132.573 45.1 133.458 45.395 134.048 45.985L133.493 46.93C132.973 46.46 132.328 46.225 131.558 46.225C130.928 46.225 130.383 46.455 129.923 46.915C129.473 47.365 129.248 47.935 129.248 48.625C129.248 49.355 129.478 49.935 129.938 50.365C130.408 50.805 130.988 51.025 131.678 51.025C132.458 51.025 133.103 50.735 133.613 50.155ZM137.279 46.45H134.804V45.25H140.954V46.45H138.479V52H137.279V46.45ZM142.626 46.675L142.311 45.715C142.981 45.305 143.731 45.1 144.561 45.1C145.471 45.1 146.131 45.325 146.541 45.775C146.951 46.225 147.156 46.92 147.156 47.86V52H146.016V51.13C145.486 51.78 144.766 52.105 143.856 52.105C143.236 52.105 142.736 51.92 142.356 51.55C141.976 51.17 141.786 50.66 141.786 50.02C141.786 49.36 142.021 48.84 142.491 48.46C142.961 48.07 143.576 47.875 144.336 47.875C145.046 47.875 145.606 48.02 146.016 48.31C146.016 47.55 145.911 47.005 145.701 46.675C145.491 46.345 145.086 46.18 144.486 46.18C143.876 46.18 143.256 46.345 142.626 46.675ZM144.276 51.025C144.946 51.025 145.526 50.735 146.016 50.155V49.3C145.596 49 145.091 48.85 144.501 48.85C144.091 48.85 143.746 48.95 143.466 49.15C143.196 49.34 143.061 49.61 143.061 49.96C143.061 50.29 143.166 50.55 143.376 50.74C143.596 50.93 143.896 51.025 144.276 51.025ZM149.165 52V45.25C149.215 45.25 149.285 45.25 149.375 45.25C149.465 45.24 149.595 45.235 149.765 45.235C149.935 45.225 150.09 45.22 150.23 45.22C150.97 45.2 151.43 45.19 151.61 45.19C153.55 45.19 154.52 45.77 154.52 46.93C154.52 47.33 154.395 47.675 154.145 47.965C153.895 48.245 153.57 48.415 153.17 48.475V48.505C154.22 48.695 154.745 49.225 154.745 50.095C154.745 51.405 153.71 52.06 151.64 52.06C151.54 52.06 151.1 52.05 150.32 52.03C150.17 52.03 150.005 52.025 149.825 52.015C149.645 52.015 149.505 52.01 149.405 52C149.305 52 149.225 52 149.165 52ZM151.805 48.97H150.365V51.04C151.085 51.07 151.545 51.085 151.745 51.085C152.895 51.085 153.47 50.725 153.47 50.005C153.47 49.315 152.915 48.97 151.805 48.97ZM151.7 46.165C151.41 46.165 150.965 46.18 150.365 46.21V48.22H151.88C152.29 48.22 152.62 48.125 152.87 47.935C153.12 47.745 153.245 47.49 153.245 47.17C153.245 46.5 152.73 46.165 151.7 46.165ZM160.912 45.25H162.487L159.532 48.475L162.772 52H161.107L158.062 48.55L160.912 45.25ZM157.777 52H156.577V45.25H157.777V52ZM164.408 46.675L164.093 45.715C164.763 45.305 165.513 45.1 166.343 45.1C167.253 45.1 167.913 45.325 168.323 45.775C168.733 46.225 168.938 46.92 168.938 47.86V52H167.798V51.13C167.268 51.78 166.548 52.105 165.638 52.105C165.018 52.105 164.518 51.92 164.138 51.55C163.758 51.17 163.568 50.66 163.568 50.02C163.568 49.36 163.803 48.84 164.273 48.46C164.743 48.07 165.358 47.875 166.118 47.875C166.828 47.875 167.388 48.02 167.798 48.31C167.798 47.55 167.693 47.005 167.483 46.675C167.273 46.345 166.868 46.18 166.268 46.18C165.658 46.18 165.038 46.345 164.408 46.675ZM166.058 51.025C166.728 51.025 167.308 50.735 167.798 50.155V49.3C167.378 49 166.873 48.85 166.283 48.85C165.873 48.85 165.528 48.95 165.248 49.15C164.978 49.34 164.843 49.61 164.843 49.96C164.843 50.29 164.948 50.55 165.158 50.74C165.378 50.93 165.678 51.025 166.058 51.025Z" fill="#333333"/>
<path d="M22.2834 47.7166L18.4041 43.8372C18.3172 43.7498 18.2139 43.6805 18.1 43.6333C17.9862 43.5862 17.8642 43.5621 17.7409 43.5625H12.375V44.1875H13.9375V48.875H14.5625V44.1875H17.7409C17.782 44.1875 17.8227 44.1955 17.8607 44.2113C17.8986 44.227 17.9331 44.25 17.9622 44.2791L18.4956 44.8125H17.0625C16.8967 44.8125 16.7378 44.8784 16.6206 44.9956C16.5033 45.1128 16.4375 45.2717 16.4375 45.4375V48.25C16.4375 48.4158 16.5033 48.5747 16.6206 48.6919C16.7378 48.8092 16.8967 48.875 17.0625 48.875H21.75V51.375C21.75 51.4579 21.7171 51.5374 21.6585 51.596C21.5999 51.6546 21.5204 51.6875 21.4375 51.6875H20.7875C20.7128 51.1672 20.453 50.6913 20.0558 50.3471C19.6586 50.0029 19.1506 49.8134 18.625 49.8134C18.0994 49.8134 17.5914 50.0029 17.1942 50.3471C16.797 50.6913 16.5372 51.1672 16.4625 51.6875H12.0375C11.9628 51.1672 11.703 50.6913 11.3058 50.3471C10.9086 50.0029 10.4006 49.8134 9.875 49.8134C9.34939 49.8134 8.8414 50.0029 8.4442 50.3471C8.047 50.6913 7.78722 51.1672 7.7125 51.6875H7.0625C6.97962 51.6875 6.90013 51.6546 6.84153 51.596C6.78292 51.5374 6.75 51.4579 6.75 51.375V48.5625H6.125V51.375C6.125 51.6236 6.22377 51.8621 6.39959 52.0379C6.5754 52.2137 6.81386 52.3125 7.0625 52.3125H7.7125C7.78071 52.7877 8.00381 53.2271 8.34719 53.5625H3.625V54.1875H18.625C19.1505 54.1865 19.658 53.9965 20.0551 53.6523C20.4521 53.3081 20.712 52.8325 20.7875 52.3125H21.4375C21.6861 52.3125 21.9246 52.2137 22.1004 52.0379C22.2762 51.8621 22.375 51.6236 22.375 51.375V47.9375C22.375 47.8546 22.342 47.7752 22.2834 47.7166ZM8.3125 52C8.3125 51.691 8.40414 51.3889 8.57583 51.1319C8.74752 50.875 8.99155 50.6747 9.27706 50.5564C9.56257 50.4382 9.87673 50.4072 10.1798 50.4675C10.4829 50.5278 10.7613 50.6766 10.9799 50.8952C11.1984 51.1137 11.3472 51.3921 11.4075 51.6952C11.4678 51.9983 11.4368 52.3124 11.3186 52.5979C11.2003 52.8835 11 53.1275 10.7431 53.2992C10.4861 53.4709 10.184 53.5625 9.875 53.5625C9.46075 53.562 9.06361 53.3972 8.77069 53.1043C8.47778 52.8114 8.313 52.4143 8.3125 52ZM11.4028 53.5625C11.7462 53.2271 11.9693 52.7877 12.0375 52.3125H16.4625C16.5307 52.7877 16.7538 53.2271 17.0972 53.5625H11.4028ZM18.625 53.5625C18.316 53.5625 18.0139 53.4709 17.7569 53.2992C17.5 53.1275 17.2997 52.8835 17.1814 52.5979C17.0632 52.3124 17.0322 51.9983 17.0925 51.6952C17.1528 51.3921 17.3016 51.1137 17.5201 50.8952C17.7387 50.6766 18.0171 50.5278 18.3202 50.4675C18.6233 50.4072 18.9374 50.4382 19.2229 50.5564C19.5085 50.6747 19.7525 50.875 19.9242 51.1319C20.0959 51.3889 20.1875 51.691 20.1875 52C20.187 52.4143 20.0222 52.8114 19.7293 53.1043C19.4364 53.3972 19.0392 53.562 18.625 53.5625ZM17.0625 48.25V45.4375H19.1206L21.75 48.0669V48.25H17.0625Z" fill="#333333"/>
<path d="M10.1875 51.6875H9.5625V52.3125H10.1875V51.6875Z" fill="#333333"/>
<path d="M18.9375 51.6875H18.3125V52.3125H18.9375V51.6875Z" fill="#333333"/>
<path d="M5.1875 50.75H3.625V51.375H5.1875V50.75Z" fill="#333333"/>
<path d="M5.1875 49.5H4.25V50.125H5.1875V49.5Z" fill="#333333"/>
<path d="M5.1875 48.25H4.5625V48.875H5.1875V48.25Z" fill="#333333"/>
<path d="M7.6875 47.9375C8.49099 47.9375 9.27643 47.6992 9.9445 47.2528C10.6126 46.8064 11.1333 46.172 11.4408 45.4296C11.7482 44.6873 11.8287 43.8705 11.6719 43.0824C11.5152 42.2944 11.1283 41.5705 10.5601 41.0024C9.99197 40.4342 9.2681 40.0473 8.48005 39.8906C7.69201 39.7338 6.87517 39.8143 6.13285 40.1217C5.39052 40.4292 4.75605 40.9499 4.30965 41.618C3.86326 42.2861 3.625 43.0715 3.625 43.875C3.62624 44.9521 4.05465 45.9846 4.81625 46.7462C5.57785 47.5078 6.61044 47.9363 7.6875 47.9375ZM7.6875 40.4375C8.36737 40.4375 9.03198 40.6391 9.59727 41.0168C10.1626 41.3945 10.6032 41.9314 10.8633 42.5595C11.1235 43.1876 11.1916 43.8788 11.0589 44.5456C10.9263 45.2124 10.5989 45.8249 10.1182 46.3057C9.63744 46.7864 9.02493 47.1138 8.35812 47.2464C7.69131 47.3791 7.00015 47.311 6.37203 47.0508C5.7439 46.7907 5.20704 46.3501 4.82932 45.7848C4.45161 45.2195 4.25 44.5549 4.25 43.875C4.25108 42.9636 4.61358 42.0899 5.25801 41.4455C5.90243 40.8011 6.77615 40.4386 7.6875 40.4375Z" fill="#333333"/>
<path d="M7.6875 46.6875C7.77037 46.6875 7.84985 46.6545 7.90844 46.5959C8.10969 46.3947 9.875 44.5906 9.875 43.25C9.875 42.6698 9.64453 42.1134 9.2343 41.7032C8.82406 41.293 8.26766 41.0625 7.6875 41.0625C7.10734 41.0625 6.55094 41.293 6.1407 41.7032C5.73047 42.1134 5.5 42.6698 5.5 43.25C5.5 44.5906 7.26531 46.3947 7.46656 46.5959C7.52515 46.6545 7.60463 46.6875 7.6875 46.6875ZM7.6875 41.6875C8.10175 41.688 8.49889 41.8528 8.79181 42.1457C9.08472 42.4386 9.2495 42.8358 9.25 43.25C9.25 44.0519 8.26656 45.2909 7.6875 45.9222C7.10844 45.2909 6.125 44.0519 6.125 43.25C6.1255 42.8358 6.29028 42.4386 6.58319 42.1457C6.87611 41.8528 7.27325 41.688 7.6875 41.6875Z" fill="#333333"/>
<path d="M8.625 43.25C8.625 43.0646 8.57002 42.8833 8.467 42.7292C8.36399 42.575 8.21757 42.4548 8.04627 42.3839C7.87496 42.3129 7.68646 42.2943 7.5046 42.3305C7.32275 42.3667 7.1557 42.456 7.02459 42.5871C6.89348 42.7182 6.80419 42.8852 6.76801 43.0671C6.73184 43.249 6.75041 43.4375 6.82136 43.6088C6.89232 43.7801 7.01248 43.9265 7.16665 44.0295C7.32082 44.1325 7.50208 44.1875 7.6875 44.1875C7.93614 44.1875 8.1746 44.0887 8.35041 43.9129C8.52623 43.7371 8.625 43.4986 8.625 43.25ZM7.375 43.25C7.375 43.1882 7.39333 43.1278 7.42767 43.0764C7.462 43.025 7.51081 42.9849 7.56791 42.9613C7.62501 42.9376 7.68785 42.9314 7.74847 42.9435C7.80908 42.9556 7.86477 42.9853 7.90847 43.029C7.95217 43.0727 7.98194 43.1284 7.99399 43.189C8.00605 43.2497 7.99986 43.3125 7.97621 43.3696C7.95256 43.4267 7.91251 43.4755 7.86112 43.5098C7.80973 43.5442 7.74931 43.5625 7.6875 43.5625C7.60462 43.5625 7.52513 43.5296 7.46653 43.471C7.40792 43.4124 7.375 43.3329 7.375 43.25Z" fill="#333333"/>
<path d="M16.75 49.5H15.5V50.125H16.75V49.5Z" fill="#333333"/>
<path d="M15.66 4.8H21.42V30H15.66V20.352C14.388 21.336 12.588 21.828 10.26 21.828C8.148 21.828 6.324 21.192 4.788 19.92C3.276 18.624 2.52 16.584 2.52 13.8V4.8H8.28V12.072C8.28 13.656 8.58 14.784 9.18 15.456C9.78 16.104 10.656 16.428 11.808 16.428C13.176 16.428 14.46 15.984 15.66 15.096V4.8ZM43.1845 30H27.8845V4.8H42.8245V10.2H33.6445V14.628H41.7445V20.028H33.6445V24.6H43.1845V30ZM54.3516 21.432V30H48.5916V4.8C49.6956 4.8 50.9076 4.788 52.2276 4.764C53.5716 4.74 54.9276 4.728 56.2956 4.728C59.8476 4.728 62.4396 5.52 64.0716 7.104C65.6796 8.64 66.4836 10.632 66.4836 13.08C66.4836 15.432 65.6316 17.436 63.9276 19.092C62.2236 20.724 59.9676 21.54 57.1596 21.54C55.9116 21.54 54.9756 21.504 54.3516 21.432ZM56.8716 10.128C56.8476 10.128 56.7396 10.14 56.5476 10.164C56.3556 10.164 56.0556 10.176 55.6476 10.2C55.2396 10.2 54.8076 10.2 54.3516 10.2V15.96C55.3596 16.08 56.2356 16.14 56.9796 16.14C57.9636 16.14 58.7676 15.888 59.3916 15.384C60.0396 14.856 60.3636 14.076 60.3636 13.044C60.3636 11.1 59.1996 10.128 56.8716 10.128ZM86.4619 30H71.1619V4.8H86.1019V10.2H76.9219V14.628H85.0219V20.028H76.9219V24.6H86.4619V30ZM112.569 30H106.809V19.848H97.6289V30H91.8689V4.8H97.6289V14.448H106.809V4.8H112.569V30ZM117.245 17.4C117.245 13.68 118.481 10.584 120.953 8.112C123.449 5.616 126.677 4.368 130.637 4.368C134.573 4.368 137.777 5.556 140.249 7.932C142.769 10.308 144.029 13.464 144.029 17.4C144.029 21.192 142.757 24.312 140.213 26.76C137.693 29.208 134.501 30.432 130.637 30.432C126.725 30.432 123.509 29.244 120.989 26.868C118.493 24.492 117.245 21.336 117.245 17.4ZM123.365 17.4C123.365 19.536 124.073 21.348 125.489 22.836C126.881 24.3 128.597 25.032 130.637 25.032C132.941 25.032 134.729 24.324 136.001 22.908C137.273 21.444 137.909 19.608 137.909 17.4C137.909 15.12 137.213 13.284 135.821 11.892C134.405 10.476 132.677 9.768 130.637 9.768C128.525 9.768 126.785 10.476 125.417 11.892C124.049 13.308 123.365 15.144 123.365 17.4ZM154.477 30H148.717V4.8H154.477V15.78L162.721 4.8H169.633L160.165 16.428L170.389 30H163.081L154.477 18.012V30Z" fill="#333333"/>
</svg>
