<svg width="10" height="10" viewBox="0 0 10 10" fill="none" xmlns="http://www.w3.org/2000/svg">
<path d="M5 0.00146484C4.64159 0.00146484 4.34956 0.293498 4.34956 0.651905V4.3466H0.650442C0.292035 4.3466 0 4.63863 0 4.99704C0 5.35545 0.292035 5.64748 0.650442 5.64748H4.34513V9.34217C4.34513 9.70058 4.63717 9.99261 4.99558 9.99261C5.35398 9.99261 5.64602 9.70058 5.64602 9.34217V5.64748H9.34071C9.69912 5.64748 9.99115 5.35545 9.99115 4.99704C9.99115 4.63863 9.69912 4.3466 9.34071 4.3466H5.64602V0.651905C5.65044 0.293498 5.35841 0.00146484 5 0.00146484Z" fill="black"/>
</svg>
