<svg width="20" height="20" viewBox="0 0 20 20" fill="none" xmlns="http://www.w3.org/2000/svg">
  <path
    fill-rule="evenodd"
    clip-rule="evenodd"
    d="M18.1568 19C17.9297 19 17.7189 18.9108 17.5649 18.7568L12.8865 14.0784L12.8297 14.1189C11.5568 15.1081 9.95946 15.6595 8.33784 15.6595C6.38378 15.6595 4.54324 14.8973 3.15676 13.5108C1.76216 12.1324 1 10.2919 1 8.32973C1 6.36757 1.76216 4.53514 3.14865 3.14865C4.53514 1.76216 6.37568 1 8.32973 1C10.2838 1 12.1243 1.76216 13.5108 3.14865C16.1216 5.75946 16.3811 9.91892 14.1189 12.8297L14.0784 12.8865L18.7568 17.5649C19.0811 17.8892 19.0811 18.4243 18.7568 18.7568C18.5946 18.9108 18.3838 19 18.1568 19ZM8.32973 2.69459C6.82162 2.69459 5.41081 3.27838 4.34054 4.34865C2.14324 6.54595 2.14324 10.1216 4.34054 12.3189C5.4027 13.3811 6.82162 13.973 8.32973 13.973C9.83784 13.973 11.2486 13.3892 12.3189 12.3189C14.5162 10.1216 14.5162 6.54595 12.3189 4.34865C11.2486 3.27838 9.83784 2.69459 8.32973 2.69459Z"
    fill="#FFFFFF"/>
</svg>
