<svg width="20" height="20" viewBox="0 0 20 20" fill="none" xmlns="http://www.w3.org/2000/svg">
<path d="M4.67144 12.9652C6.44682 15.0874 8.584 16.7584 11.0233 17.9407C11.952 18.3809 13.194 18.903 14.5778 18.9925C14.6636 18.9963 14.7456 19 14.8314 19C15.7601 19 16.5061 18.6792 17.114 18.0191C17.1178 18.0153 17.1252 18.0079 17.129 18.0004C17.3453 17.7393 17.5915 17.5044 17.8488 17.2545C18.0241 17.0866 18.2031 16.9113 18.3747 16.7323C19.1692 15.9043 19.1692 14.8525 18.3673 14.0506L16.1256 11.809C15.7452 11.4136 15.2902 11.2047 14.8128 11.2047C14.3353 11.2047 13.8766 11.4136 13.485 11.8052L12.1497 13.1405C12.0266 13.0696 11.8998 13.0062 11.7804 12.9465C11.6312 12.8719 11.4932 12.8011 11.3702 12.7228C10.1542 11.9507 9.05022 10.9436 7.99469 9.6494C7.46133 8.97431 7.10327 8.40738 6.85337 7.82926C7.20397 7.51223 7.5322 7.18027 7.84923 6.85578C7.96112 6.74016 8.07675 6.62453 8.19237 6.50891C8.59519 6.10609 8.81152 5.63987 8.81152 5.16618C8.81152 4.6925 8.59892 4.22627 8.19237 3.82346L7.08089 2.71198C6.95035 2.58143 6.82726 2.45462 6.70045 2.32408C6.45428 2.07045 6.19693 1.80937 5.9433 1.57439C5.55913 1.19768 5.10783 1 4.63041 1C4.15673 1 3.70169 1.19768 3.30261 1.57812L1.90766 2.97306C1.40041 3.48031 1.11322 4.09573 1.05354 4.80812C0.982672 5.69954 1.14678 6.64691 1.57198 7.79196C2.22469 9.56361 3.20936 11.2085 4.67144 12.9652ZM1.96361 4.88645C2.00837 4.39039 2.19859 3.97638 2.55665 3.61832L3.94413 2.23083C4.16046 2.02196 4.39917 1.9138 4.63041 1.9138C4.85793 1.9138 5.08918 2.02196 5.30178 2.23829C5.55167 2.46954 5.78665 2.71198 6.04028 2.96933C6.16709 3.09988 6.29763 3.23042 6.42818 3.36469L7.53966 4.47617C7.7709 4.70742 7.89026 4.9424 7.89026 5.17364C7.89026 5.40489 7.7709 5.63987 7.53966 5.87111C7.42403 5.98674 7.30841 6.10609 7.19278 6.22172C6.84591 6.57232 6.52142 6.90427 6.16336 7.2213C6.1559 7.22876 6.15217 7.23249 6.14471 7.23995C5.83514 7.54952 5.88363 7.84418 5.95822 8.06797C5.96195 8.07915 5.96568 8.08661 5.96941 8.0978C6.25661 8.78782 6.65569 9.44426 7.27857 10.2275C8.39751 11.6075 9.57612 12.678 10.8741 13.5023C11.0345 13.6067 11.206 13.6888 11.3664 13.7708C11.5156 13.8454 11.6536 13.9163 11.7767 13.9946C11.7916 14.0021 11.8028 14.0095 11.8177 14.017C11.9408 14.0804 12.0602 14.1102 12.1795 14.1102C12.4779 14.1102 12.6719 13.92 12.7353 13.8566L14.1302 12.4617C14.3465 12.2453 14.5815 12.1297 14.8128 12.1297C15.0962 12.1297 15.3275 12.305 15.4729 12.4617L17.722 14.707C18.1696 15.1546 18.1658 15.6395 17.7108 16.1131C17.5542 16.281 17.39 16.4414 17.2147 16.6092C16.9537 16.8628 16.6814 17.1239 16.4352 17.4186C16.0063 17.8811 15.4953 18.0974 14.8351 18.0974C14.7717 18.0974 14.7046 18.0937 14.6412 18.0899C13.4178 18.0116 12.2802 17.5342 11.4261 17.1276C9.10617 16.005 7.0697 14.4123 5.3801 12.3908C3.98889 10.7161 3.05271 9.15707 2.43356 7.48612C2.04939 6.46042 1.90393 5.63614 1.96361 4.88645Z" fill="#333333" stroke="#333333" stroke-width="0.3"/>
</svg>
