<svg width="20" height="20" viewBox="0 0 20 20" fill="none" xmlns="http://www.w3.org/2000/svg">
<path d="M5.45349 0H0V5.45349H5.45349V0ZM4.54651 4.54651H0.906975V0.906975H4.54651V4.54651Z" fill="#333333"/>
<path d="M12.7328 0H7.2793V5.45349H12.7328V0ZM11.8142 4.54651H8.17464V0.906975H11.8142V4.54651Z" fill="#333333"/>
<path d="M19.9999 0H14.5464V5.45349H19.9999V0ZM19.0929 4.54651H15.4534V0.906975H19.0929V4.54651Z" fill="#333333"/>
<path d="M5.45349 7.26758H0V12.7211H5.45349V7.26758ZM4.54651 11.8141H0.906975V8.17455H4.54651V11.8141Z" fill="#333333"/>
<path d="M12.7328 7.26758H7.2793V12.7211H12.7328V7.26758ZM11.8142 11.8141H8.17464V8.17455H11.8142V11.8141Z" fill="#333333"/>
<path d="M19.9999 7.26758H14.5464V12.7211H19.9999V7.26758ZM19.0929 11.8141H15.4534V8.17455H19.0929V11.8141Z" fill="#333333"/>
<path d="M0 19.9999H5.45349V14.5464H0V19.9999ZM0.906975 15.4534H4.54651V19.0929H0.906975V15.4534Z" fill="#333333"/>
<path d="M7.26758 19.9999H12.7211V14.5464H7.26758V19.9999ZM8.18618 15.4534H11.8257V19.0929H8.18618V15.4534Z" fill="#333333"/>
<path d="M14.5464 19.9999H19.9999V14.5464H14.5464V19.9999ZM15.4534 15.4534H19.0929V19.0929H15.4534V15.4534Z" fill="#333333"/>
</svg>
