<svg width="20" height="20" viewBox="0 0 20 20" fill="none" xmlns="http://www.w3.org/2000/svg">
<path d="M19.0723 15.4438H15.4434V19.0728H19.0723V15.4438Z" fill="#333333"/>
<path d="M11.8145 15.4438H8.18555V19.0728H11.8145V15.4438Z" fill="#333333"/>
<path d="M4.56795 15.4438H0.938965V19.0728H4.56795V15.4438Z" fill="#333333"/>
<path d="M11.8145 8.18604H8.18555V11.815H11.8145V8.18604Z" fill="#333333"/>
<path d="M19.0723 8.18604H15.4434V11.815H19.0723V8.18604Z" fill="#333333"/>
<path d="M19.0723 0.939453H15.4434V4.56844H19.0723V0.939453Z" fill="#333333"/>
<path d="M11.8145 0.939453H8.18555V4.56844H11.8145V0.939453Z" fill="#333333"/>
<path d="M4.56795 0.939453H0.938965V4.56844H4.56795V0.939453Z" fill="#333333"/>
<path d="M4.56795 8.18604H0.938965V11.815H4.56795V8.18604Z" fill="#333333"/>
<path d="M19.9767 14.5278V19.9655H14.5391V14.5278H19.9767V14.5278ZM19.0608 19.0612V15.4322H15.4318V19.0612H19.0608Z" fill="#333333"/>
<path d="M19.9767 7.28125V12.7189H14.5391V7.28125H19.9767ZM19.0608 11.8146V8.1856H15.4318V11.8146H19.0608V11.8146Z" fill="#333333"/>
<path d="M19.9767 0.0234375V5.46112H14.5391V0.0234375H19.9767ZM19.0608 4.55677V0.93938H15.4318V4.56836H19.0608V4.55677Z" fill="#333333"/>
<path d="M12.7189 14.5278V19.9655H7.28125V14.5278H12.7189V14.5278ZM11.8146 19.0612V15.4322H8.1856V19.0612H11.8146Z" fill="#333333"/>
<path d="M12.7189 7.28125V12.7189H7.28125V7.28125H12.7189ZM11.8146 11.8146V8.1856H8.1856V11.8146H11.8146V11.8146Z" fill="#333333"/>
<path d="M12.7189 0.0234375V5.46112H7.28125V0.0234375H12.7189ZM11.8146 4.55677V0.93938H8.1856V4.56836H11.8146V4.55677Z" fill="#333333"/>
<path d="M5.47235 14.5278V19.9655H0.034668V14.5278H5.47235V14.5278ZM4.55641 19.0612V15.4322H0.939016V19.0612H4.55641Z" fill="#333333"/>
<path d="M5.47235 7.28125V12.7189H0.034668V7.28125H5.47235ZM4.55641 11.8146V8.1856H0.939016V11.8146H4.55641V11.8146Z" fill="#333333"/>
<path d="M5.47235 0.0234375V5.46112H0.034668V0.0234375H5.47235ZM4.55641 4.55677V0.93938H0.939016V4.56836H4.55641V4.55677Z" fill="#333333"/>
</svg>
