<svg width="20" height="20" viewBox="0 0 20 20" fill="none" xmlns="http://www.w3.org/2000/svg">
<path d="M10.0001 9.90263C7.43377 9.90263 5.33643 7.80528 5.33643 5.23891C5.33643 2.66369 7.42492 0.575195 10.0001 0.575195C12.5754 0.575195 14.6639 2.66369 14.6639 5.23891C14.6639 7.81413 12.5754 9.90263 10.0001 9.90263ZM10.0444 2.04422H10.0001C8.23908 2.04422 6.80545 3.47785 6.80545 5.23891C6.80545 6.99997 8.23908 8.4336 10.0001 8.4336C11.7612 8.4336 13.1948 6.99997 13.1948 5.23891C13.1948 3.4867 11.7878 2.06192 10.0444 2.04422Z" fill="#333333"/>
<path d="M17.9825 19.4336C17.602 19.4336 17.2834 19.1416 17.248 18.7522C16.9206 15.0265 13.7348 12.1062 10.0002 12.1062C6.26574 12.1062 3.07105 15.0265 2.75246 18.7522C2.71706 19.1416 2.40733 19.4336 2.01795 19.4336C1.81441 19.4336 1.61087 19.3451 1.47812 19.1947C1.33653 19.0442 1.26574 18.8407 1.28343 18.6371C1.45158 16.584 2.35423 14.6548 3.81441 13.2035C5.46927 11.5487 7.66397 10.646 10.0002 10.646C12.2038 10.646 14.31 11.469 15.9295 12.9646C17.5401 14.4513 18.5312 16.469 18.7171 18.6371C18.7348 18.8407 18.664 19.0442 18.5224 19.1947C18.3808 19.3451 18.1861 19.4336 17.9825 19.4336Z" fill="#333333"/>
</svg>
