<svg width="20" height="20" viewBox="0 0 20 20" fill="none" xmlns="http://www.w3.org/2000/svg">
<path d="M17.7432 13.4069H16.5927V12.2741C16.5927 12.1856 16.5662 12.0972 16.5219 12.0352C16.4423 11.9025 16.3007 11.8228 16.1414 11.814H16.0883C15.8494 11.8405 15.6812 12.0441 15.6812 12.2741V13.4069H15.0529H14.5485C14.5308 13.4069 14.5219 13.4069 14.5042 13.4069C14.2564 13.4157 14.0618 13.6281 14.0706 13.8848C14.0795 14.1237 14.2741 14.3095 14.5042 14.3184C14.5219 14.3184 14.5308 14.3184 14.5485 14.3184H15.575H15.6812V15.4511C15.6812 15.6989 15.8759 15.9113 16.1325 15.9113C16.3803 15.9113 16.5927 15.7166 16.5927 15.46V14.3095H17.7255C17.9733 14.3095 18.1856 14.1149 18.1856 13.8582C18.1945 13.6193 17.991 13.4157 17.7432 13.4069Z" fill="black"/>
<path d="M16.823 10.0617C16.8053 10.0617 16.7965 10.0528 16.7788 10.0528C16.7788 10.0351 16.7788 10.0174 16.7788 9.99973C16.7788 5.37141 13.0177 1.61035 8.38938 1.61035C3.76106 1.61035 0 5.37141 0 9.99973C0 14.6281 3.76106 18.3891 8.38938 18.3891C10.3009 18.3891 12.0708 17.7431 13.4779 16.6635C14.1681 17.3272 15.1062 17.7342 16.1327 17.7342C18.2655 17.7342 20 15.9997 20 13.867C20 11.9732 18.6195 10.3891 16.823 10.0617ZM8.38938 17.4865C4.25664 17.4865 0.902655 14.1236 0.902655 9.99973C0.902655 5.86699 4.26549 2.51301 8.38938 2.51301C12.5221 2.51301 15.8761 5.87584 15.8761 9.99973V10.0174C15.1239 10.0705 14.4248 10.3272 13.8496 10.7519C13.4779 10.9997 13.177 11.3803 13.177 11.3803C12.6637 11.9909 12.3363 12.7785 12.2832 13.6281C12.2832 13.6281 12.2832 13.6369 12.2832 13.6458C12.2389 14.0174 12.3363 14.5573 12.3363 14.5573C12.4336 15.0705 12.6283 15.5573 12.9027 15.982C11.646 16.9201 10.0796 17.4865 8.38938 17.4865ZM16.1327 16.8139C15.3717 16.8139 14.6814 16.5307 14.1681 16.0617C13.9469 15.8581 13.7522 15.6281 13.5929 15.3714C13.3274 14.9289 13.177 14.4157 13.177 13.8581C13.177 12.3272 14.3274 11.0794 15.8142 10.9201C15.9204 10.9112 16.0265 10.9024 16.1327 10.9024C16.3363 10.9024 16.5221 10.9201 16.7168 10.9555C18.0708 11.221 19.0885 12.4157 19.0885 13.8493C19.0885 15.5042 17.7699 16.8139 16.1327 16.8139Z" fill="black"/>
<path d="M11.9026 9.24743L6.59288 6.19433C6.42474 6.09698 6.25659 6.05273 6.08845 6.05273C5.62828 6.05273 5.29199 6.43327 5.29199 6.94654V13.0439C5.29199 13.566 5.62828 13.9377 6.08845 13.9377C6.25659 13.9377 6.43358 13.8846 6.59288 13.7961L11.9026 10.743C12.2123 10.566 12.3893 10.2917 12.3893 9.99079C12.3893 9.69876 12.2123 9.42442 11.9026 9.24743ZM6.1858 12.9996V6.99964L11.3982 9.99964L6.1858 12.9996Z" fill="black"/>
</svg>
