<svg width="20" height="20" viewBox="0 0 20 20" fill="none" xmlns="http://www.w3.org/2000/svg">
<path d="M10 20C4.48 20 0 15.52 0 10C0 4.48 4.48 0 10 0C15.52 0 20 4.48 20 10C20 15.52 15.52 20 10 20ZM10 19.12C15.04 19.12 19.12 15.04 19.12 10C19.12 4.96 15.04 0.88 10 0.88C4.96 0.88 0.88 4.96 0.88 10C0.88 15.04 4.96 19.12 10 19.12ZM13.76 9.96L7.36 6.28C7.24 6.2 7.24 6.2 7.24 6.32V13.68C7.24 13.84 7.2 13.8 7.36 13.72L13.76 10.04C13.88 10 13.88 10 13.76 9.96ZM14.2 9.2C14.92 9.6 14.92 10.4 14.2 10.84L7.8 14.52C7.08 14.92 6.4 14.52 6.4 13.72V6.32C6.4 5.52 7.12 5.12 7.8 5.52L14.2 9.2Z" fill="black"/>
</svg>
